<svg width="57" height="41" viewBox="0 0 57 41" fill="none" xmlns="http://www.w3.org/2000/svg">
<g clip-path="url(#clip0_824_35100)">
<g opacity="0.7" clip-path="url(#clip1_824_35100)">
<path d="M34.7777 24.8237C31.5274 27.2195 26.8162 28.4977 22.7599 28.4977C17.0724 28.4977 11.9521 26.3941 8.07846 22.8954C7.77412 22.6203 8.04681 22.2453 8.41202 22.4596C12.5925 24.8919 17.7614 26.3552 23.1008 26.3552C26.7017 26.3552 30.663 25.6101 34.3054 24.0641C34.8556 23.8304 35.3158 24.4244 34.7777 24.8237Z" fill="#13121C"/>
<path d="M36.1278 23.2777C35.7139 22.7469 33.3815 23.0269 32.3345 23.1511C32.0156 23.1901 31.9669 22.9125 32.2542 22.7128C34.1119 21.4054 37.1602 21.7828 37.5156 22.221C37.8711 22.6617 37.4231 25.7173 35.6774 27.1757C35.4096 27.3997 35.154 27.2804 35.2733 26.9834C35.6652 26.0046 36.5442 23.8109 36.1278 23.2777Z" fill="#13121C"/>
<path d="M32.4078 13.4828V12.2119C32.4078 12.0195 32.5539 11.8905 32.7292 11.8905H38.4192C38.6018 11.8905 38.7478 12.022 38.7478 12.2119V13.3002C38.7454 13.4828 38.592 13.7214 38.3193 14.0988L35.3709 18.3085C36.4665 18.2817 37.623 18.4448 38.6164 19.0048C38.8404 19.1314 38.9012 19.3164 38.9183 19.499V20.8552C38.9183 21.0402 38.7138 21.2569 38.4995 21.1449C36.7489 20.227 34.4238 20.1272 32.4881 21.1547C32.2909 21.2618 32.084 21.0475 32.084 20.8625V19.5745C32.084 19.3676 32.0864 19.0145 32.2934 18.7004L35.7093 13.8018H32.7365C32.5539 13.8018 32.4078 13.6727 32.4078 13.4828Z" fill="#13121C"/>
<path d="M11.6516 21.4126H9.92054C9.75498 21.4004 9.6235 21.2763 9.61133 21.118V12.2337C9.61133 12.0559 9.75985 11.9147 9.94489 11.9147H11.5591C11.7271 11.922 11.861 12.0511 11.8732 12.2117V13.3731H11.9048C12.3261 12.2507 13.1173 11.7272 14.1838 11.7272C15.2672 11.7272 15.9441 12.2507 16.431 13.3731C16.8498 12.2507 17.8018 11.7272 18.8219 11.7272C19.5475 11.7272 20.3412 12.0267 20.8257 12.6987C21.3735 13.4462 21.2615 14.532 21.2615 15.484L21.2591 21.0912C21.2591 21.2689 21.1106 21.4126 20.9255 21.4126H19.1969C19.024 21.4004 18.8852 21.2616 18.8852 21.0912V16.3824C18.8852 16.0075 18.9193 15.0726 18.8365 14.7171C18.7075 14.1206 18.3204 13.9526 17.8188 13.9526C17.4 13.9526 16.9618 14.2326 16.784 14.6806C16.6063 15.1286 16.6234 15.8785 16.6234 16.3824V21.0912C16.6234 21.2689 16.4748 21.4126 16.2898 21.4126H14.5611C14.3858 21.4004 14.2495 21.2616 14.2495 21.0912L14.2471 16.3824C14.2471 15.3915 14.4102 13.9331 13.1806 13.9331C11.9365 13.9331 11.9852 15.355 11.9852 16.3824V21.0912C11.9852 21.2689 11.8367 21.4126 11.6516 21.4126Z" fill="#13121C"/>
<path d="M43.6456 11.7272C46.2142 11.7272 47.6044 13.9331 47.6044 16.7379C47.6044 19.4478 46.0681 21.5976 43.6456 21.5976C41.1232 21.5976 39.75 19.3918 39.75 16.643C39.75 13.8771 41.1402 11.7272 43.6456 11.7272ZM43.6602 13.5411C42.3844 13.5411 42.304 15.2795 42.304 16.363C42.304 17.4489 42.287 19.7667 43.6456 19.7667C44.9871 19.7667 45.0504 17.8968 45.0504 16.7574C45.0504 16.0075 45.0188 15.1115 44.7923 14.4006C44.5976 13.7821 44.2104 13.5411 43.6602 13.5411Z" fill="#13121C"/>
<path d="M50.9363 21.4126H49.2125C49.0396 21.4004 48.9009 21.2616 48.9009 21.0912L48.8984 12.2044C48.913 12.0413 49.0567 11.9147 49.232 11.9147H50.8365C50.9874 11.922 51.1116 12.0243 51.1457 12.1631V13.5216H51.1773C51.6619 12.3067 52.3411 11.7272 53.5366 11.7272C54.3133 11.7272 55.0705 12.0072 55.5574 12.7742C56.0103 13.4851 56.0103 14.6806 56.0103 15.54V21.1326C55.9908 21.2884 55.8472 21.4126 55.6767 21.4126H53.9408C53.7825 21.4004 53.651 21.2836 53.634 21.1326V16.307C53.634 15.3355 53.746 13.9136 52.5505 13.9136C52.1293 13.9136 51.7422 14.1961 51.5499 14.6246C51.3064 15.1675 51.2747 15.708 51.2747 16.307V21.0912C51.2723 21.2689 51.1213 21.4126 50.9363 21.4126Z" fill="#13121C"/>
<path d="M27.8722 17.1688V16.7939C26.6208 16.7939 25.2987 17.0617 25.2987 18.5371C25.2987 19.2846 25.6859 19.791 26.3505 19.791C26.8375 19.791 27.2733 19.4915 27.5484 19.0046C27.8893 18.4057 27.8722 17.8432 27.8722 17.1688ZM29.618 21.3882C29.5035 21.4905 29.338 21.4978 29.2089 21.4296C28.6343 20.9524 28.5321 20.7308 28.2155 20.2755C27.266 21.2446 26.594 21.5343 25.362 21.5343C23.9061 21.5343 22.7715 20.6359 22.7715 18.8366C22.7715 17.4318 23.5336 16.4749 24.617 16.0074C25.5568 15.5935 26.8691 15.5205 27.8722 15.4061V15.1821C27.8722 14.7706 27.9039 14.2837 27.6629 13.9282C27.451 13.6092 27.0469 13.4778 26.6914 13.4778C26.0316 13.4778 25.4424 13.8162 25.2987 14.5174C25.2695 14.6732 25.1551 14.8266 24.9993 14.8339L23.3193 14.6537C23.1781 14.6221 23.0223 14.5076 23.0612 14.291C23.4483 12.2555 25.2866 11.642 26.9324 11.642C27.7749 11.642 28.8754 11.866 29.54 12.5039C30.3825 13.2903 30.3021 14.3397 30.3021 15.4815V18.1792C30.3021 18.99 30.6381 19.3455 30.9546 19.7837C31.0666 19.9395 31.091 20.127 30.9497 20.2439C30.5967 20.5385 29.9686 21.0863 29.6228 21.3931L29.618 21.3882Z" fill="#13121C"/>
<path d="M5.17694 17.1688V16.7939C3.92548 16.7939 2.60342 17.0617 2.60342 18.5371C2.60342 19.2846 2.99054 19.791 3.65523 19.791C4.14217 19.791 4.57799 19.4915 4.85312 19.0046C5.19398 18.4057 5.17694 17.8432 5.17694 17.1688ZM6.92264 21.3882C6.80821 21.4905 6.64264 21.4978 6.5136 21.4296C5.93901 20.9524 5.83675 20.7308 5.52023 20.2755C4.57069 21.2446 3.8987 21.5343 2.66673 21.5343C1.21076 21.5343 0.0761719 20.6359 0.0761719 18.8366C0.0761719 17.4318 0.838243 16.4749 1.9217 16.0074C2.8615 15.5935 4.17382 15.5205 5.17694 15.4061V15.1821C5.17694 14.7706 5.20859 14.2837 4.96755 13.9282C4.75573 13.6092 4.35156 13.4778 3.99609 13.4778C3.33628 13.4778 2.74707 13.8162 2.60342 14.5174C2.57421 14.6732 2.45977 14.8266 2.30395 14.8339L0.623987 14.6537C0.482772 14.6221 0.326949 14.5076 0.365905 14.291C0.753027 12.2555 2.59125 11.642 4.23713 11.642C5.07954 11.642 6.18004 11.866 6.84473 12.5039C7.68714 13.2903 7.6068 14.3397 7.6068 15.4815V18.1792C7.6068 18.99 7.94279 19.3455 8.25931 19.7837C8.3713 19.9395 8.39565 20.127 8.25444 20.2439C7.9014 20.5385 7.27324 21.0863 6.92751 21.3931L6.92264 21.3882Z" fill="#13121C"/>
</g>
</g>
<defs>
<clipPath id="clip0_824_35100">
<rect width="56" height="40" fill="white" transform="translate(0.0429688 0.0703125)"/>
</clipPath>
<clipPath id="clip1_824_35100">
<rect width="56" height="16.9022" fill="white" transform="translate(0.0429688 11.6193)"/>
</clipPath>
</defs>
</svg>
