<svg width="48" height="41" viewBox="0 0 48 41" fill="none" xmlns="http://www.w3.org/2000/svg">
<g clip-path="url(#clip0_824_35091)">
<g opacity="0.7" clip-path="url(#clip1_824_35091)">
<path d="M15.7101 25.026H13.6074V33.3589H15.7101V25.026Z" fill="#13121C"/>
<path d="M32.6653 27.4139C32.5807 27.37 31.9046 26.969 30.8989 26.969C29.5369 26.969 28.5944 27.9155 28.5944 29.1916C28.5944 30.4298 29.4976 31.4162 30.8989 31.4162C31.8873 31.4162 32.5747 31.0239 32.6653 30.9739V33.2105C32.4042 33.2844 31.6868 33.5069 30.7477 33.5069C28.3839 33.5069 26.3105 31.8764 26.3105 29.1916C26.3105 26.7033 28.1888 24.8783 30.7477 24.8783C31.7375 24.8783 32.4674 25.1187 32.6653 25.1773V27.4139Z" fill="#13121C"/>
<path d="M10.718 27.4139C10.6334 27.37 9.95737 26.969 8.95165 26.969C7.58959 26.969 6.64714 27.9155 6.64714 29.1916C6.64714 30.4298 7.5503 31.4162 8.95165 31.4162C9.94006 31.4162 10.6274 31.0239 10.718 30.9739V33.2105C10.4569 33.2844 9.73958 33.5069 8.80046 33.5069C6.43667 33.5069 4.36328 31.8764 4.36328 29.1916C4.36328 26.7033 6.24152 24.8783 8.80046 24.8783C9.7902 24.8783 10.5202 25.1187 10.718 25.1773V27.4139Z" fill="#13121C"/>
<path d="M39.2814 27.0001C38.0339 27.0001 37.1074 27.9818 37.1074 29.1913C37.1074 30.4035 38.0339 31.3846 39.2814 31.3846C40.5276 31.3846 41.4567 30.4035 41.4567 29.1913C41.4567 27.9818 40.5276 27.0001 39.2814 27.0001ZM43.6846 29.1913C43.6846 31.5751 41.8443 33.5066 39.2814 33.5066C36.7185 33.5066 34.8809 31.5751 34.8809 29.1913C34.8809 26.8116 36.7185 24.8781 39.2814 24.8781C41.8443 24.8781 43.6846 26.8116 43.6846 29.1913Z" fill="#13121C"/>
<path d="M23.6858 26.9203C23.6545 26.9103 22.7693 26.6659 22.042 26.6659C21.1994 26.6659 20.7412 26.9483 20.7412 27.3486C20.7412 27.8561 21.3593 28.0333 21.7049 28.1425L22.2851 28.327C23.6498 28.7612 24.2719 29.6957 24.2719 30.7108C24.2719 32.8041 22.4309 33.5075 20.8218 33.5075C19.7035 33.5075 18.6558 33.3017 18.5526 33.2797V31.3621C18.7377 31.4088 19.6196 31.6719 20.538 31.6719C21.5844 31.6719 22.0653 31.3661 22.0653 30.8939C22.0653 30.4716 21.649 30.2279 21.1275 30.064C21.0003 30.0214 20.8091 29.9615 20.6786 29.9188C19.5077 29.5485 18.5312 28.8605 18.5312 27.4811C18.5312 25.9226 19.6982 24.8762 21.6363 24.8762C22.66 24.8762 23.6231 25.1247 23.6858 25.1413V26.9203Z" fill="#13121C"/>
<path d="M2.13297 16.0708C2.13297 15.4966 1.66407 15.0311 1.08928 15.0311C0.514482 15.0311 0.0449219 15.4966 0.0449219 16.0708V18.258C0.0449219 18.8355 0.514482 19.3017 1.08928 19.3017C1.66407 19.3017 2.13297 18.8355 2.13297 18.258V16.0708Z" fill="#13121C"/>
<path d="M7.86734 13.1998C7.86734 12.6256 7.39845 12.1588 6.82365 12.1588C6.24819 12.1588 5.7793 12.6256 5.7793 13.1998V18.2584C5.7793 18.8358 6.24819 19.3014 6.82365 19.3014C7.39845 19.3014 7.86734 18.8358 7.86734 18.2584V13.1998Z" fill="#13121C"/>
<path d="M13.6017 9.27205C13.6017 8.69792 13.1328 8.23169 12.558 8.23169C11.9826 8.23169 11.5137 8.69792 11.5137 9.27205V20.337C11.5137 20.9145 11.9826 21.3807 12.558 21.3807C13.1328 21.3807 13.6017 20.9145 13.6017 20.337V9.27205Z" fill="#13121C"/>
<path d="M19.3341 13.1998C19.3341 12.6256 18.8652 12.1588 18.2904 12.1588C17.715 12.1588 17.2461 12.6256 17.2461 13.1998V18.2584C17.2461 18.8358 17.715 19.3014 18.2904 19.3014C18.8652 19.3014 19.3341 18.8358 19.3341 18.2584V13.1998Z" fill="#13121C"/>
<path d="M25.0638 16.0708C25.0638 15.4966 24.5982 15.0311 24.0261 15.0311C23.4513 15.0311 22.9824 15.4966 22.9824 16.0708V18.258C22.9824 18.8355 23.4513 19.3017 24.0261 19.3017C24.5982 19.3017 25.0638 18.8355 25.0638 18.258V16.0708Z" fill="#13121C"/>
<path d="M25.0666 16.0708C25.0666 15.4966 24.5977 15.0311 24.0229 15.0311C23.4481 15.0311 22.9785 15.4966 22.9785 16.0708V18.258C22.9785 18.8355 23.4481 19.3017 24.0229 19.3017C24.5977 19.3017 25.0666 18.8355 25.0666 18.258V16.0708Z" fill="#13121C"/>
<path d="M30.8009 13.1998C30.8009 12.6256 30.332 12.1588 29.7572 12.1588C29.1818 12.1588 28.7129 12.6256 28.7129 13.1998V18.2584C28.7129 18.8358 29.1818 19.3014 29.7572 19.3014C30.332 19.3014 30.8009 18.8358 30.8009 18.2584V13.1998Z" fill="#13121C"/>
<path d="M36.5353 9.2718C36.5353 8.69768 36.0664 8.23145 35.4916 8.23145C34.9162 8.23145 34.4473 8.69768 34.4473 9.2718V20.3368C34.4473 20.9142 34.9162 21.3805 35.4916 21.3805C36.0664 21.3805 36.5353 20.9142 36.5353 20.3368V9.2718Z" fill="#13121C"/>
<path d="M42.2697 13.1998C42.2697 12.6256 41.8008 12.1588 41.226 12.1588C40.6505 12.1588 40.1816 12.6256 40.1816 13.1998V18.2584C40.1816 18.8358 40.6505 19.3014 41.226 19.3014C41.8008 19.3014 42.2697 18.8358 42.2697 18.2584V13.1998Z" fill="#13121C"/>
<path d="M47.9974 16.0708C47.9974 15.4966 47.5318 15.0311 46.9597 15.0311C46.3849 15.0311 45.916 15.4966 45.916 16.0708V18.258C45.916 18.8355 46.3849 19.3017 46.9597 19.3017C47.5318 19.3017 47.9974 18.8355 47.9974 18.258V16.0708Z" fill="#13121C"/>
<path d="M46.7963 32.2616V32.3921H46.4246V33.3586H46.2721V32.3921H45.8984V32.2616H46.7963Z" fill="#13121C"/>
<path d="M46.875 32.2616H47.1141L47.4425 33.1614H47.4478L47.7655 32.2616H47.9999V33.3586H47.8434V32.4594H47.8381L47.5051 33.3586H47.3605L47.0355 32.4594H47.0282V33.3586H46.875V32.2616Z" fill="#13121C"/>
</g>
</g>
<defs>
<clipPath id="clip0_824_35091">
<rect width="47.9551" height="40" fill="white" transform="translate(0.0449219 0.866699)"/>
</clipPath>
<clipPath id="clip1_824_35091">
<rect width="47.9551" height="25.3096" fill="white" transform="translate(0.0449219 8.21191)"/>
</clipPath>
</defs>
</svg>
