<svg width="59" height="41" viewBox="0 0 59 41" fill="none" xmlns="http://www.w3.org/2000/svg">
<g clip-path="url(#clip0_824_35092)">
<g opacity="0.7" clip-path="url(#clip1_824_35092)">
<path d="M24.9725 21.4211C24.9725 24.1848 22.8105 26.2213 20.1572 26.2213C17.5038 26.2213 15.3418 24.1848 15.3418 21.4211C15.3418 18.6379 17.5038 16.6208 20.1572 16.6208C22.8105 16.6208 24.9725 18.6379 24.9725 21.4211ZM22.8646 21.4211C22.8646 19.694 21.6115 18.5124 20.1572 18.5124C18.7028 18.5124 17.4497 19.694 17.4497 21.4211C17.4497 23.1308 18.7028 24.3298 20.1572 24.3298C21.6115 24.3298 22.8646 23.1286 22.8646 21.4211Z" fill="#13121C"/>
<path d="M35.3612 21.4211C35.3612 24.1848 33.1992 26.2213 30.5458 26.2213C27.8925 26.2213 25.7305 24.1848 25.7305 21.4211C25.7305 18.6401 27.8925 16.6208 30.5458 16.6208C33.1992 16.6208 35.3612 18.6379 35.3612 21.4211ZM33.2533 21.4211C33.2533 19.694 32.0002 18.5124 30.5458 18.5124C29.0915 18.5124 27.8384 19.694 27.8384 21.4211C27.8384 23.1308 29.0915 24.3298 30.5458 24.3298C32.0002 24.3298 33.2533 23.1286 33.2533 21.4211Z" fill="#13121C"/>
<path d="M45.3155 16.9109V25.5287C45.3155 29.0737 43.2249 30.5216 40.7533 30.5216C38.4268 30.5216 37.0266 28.9655 36.4985 27.6929L38.3338 26.929C38.6606 27.7103 39.4613 28.6322 40.7512 28.6322C42.3332 28.6322 43.3136 27.6562 43.3136 25.8187V25.1284H43.24C42.7682 25.7105 41.8593 26.2191 40.7122 26.2191C38.3121 26.2191 36.1133 24.1285 36.1133 21.4384C36.1133 18.7288 38.3121 16.6208 40.7122 16.6208C41.8571 16.6208 42.7661 17.1294 43.24 17.6943H43.3136V16.913H45.3155V16.9109ZM43.4629 21.4384C43.4629 19.7481 42.3354 18.5124 40.9005 18.5124C39.4462 18.5124 38.2277 19.7481 38.2277 21.4384C38.2277 23.1113 39.4462 24.3298 40.9005 24.3298C42.3354 24.3298 43.4629 23.1113 43.4629 21.4384Z" fill="#13121C"/>
<path d="M48.6165 11.8596V25.9269H46.5605V11.8596H48.6165Z" fill="#13121C"/>
<path d="M56.6287 23.0009L58.2648 24.0917C57.7368 24.8729 56.4642 26.2191 54.2654 26.2191C51.5385 26.2191 49.502 24.1111 49.502 21.4189C49.502 18.5643 51.5558 16.6187 54.0295 16.6187C56.5205 16.6187 57.7389 18.6011 58.1372 19.6724L58.3557 20.2177L51.9389 22.8754C52.4301 23.8385 53.1941 24.3297 54.2654 24.3297C55.3388 24.3297 56.0833 23.8017 56.6287 23.0009ZM51.5926 21.2739L55.882 19.4927C55.6461 18.8932 54.9363 18.4755 54.1009 18.4755C53.0296 18.4755 51.5385 19.4213 51.5926 21.2739Z" fill="#13121C"/>
<path d="M7.55959 20.1722V18.1357H14.4223C14.4894 18.4906 14.524 18.9105 14.524 19.365C14.524 20.8929 14.1063 22.7823 12.7602 24.1284C11.4508 25.4919 9.7779 26.219 7.56175 26.219C3.45408 26.219 0 22.8732 0 18.7655C0 14.6578 3.45408 11.312 7.56175 11.312C9.83417 11.312 11.453 12.2036 12.6693 13.3658L11.2322 14.8028C10.3601 13.9848 9.17842 13.3485 7.55959 13.3485C4.55999 13.3485 2.21399 15.7659 2.21399 18.7655C2.21399 21.7651 4.55999 24.1825 7.55959 24.1825C9.50521 24.1825 10.6133 23.4012 11.3231 22.6914C11.8988 22.1157 12.2776 21.2933 12.4269 20.1701L7.55959 20.1722Z" fill="#13121C"/>
</g>
</g>
<defs>
<clipPath id="clip0_824_35092">
<rect width="58.3555" height="40" fill="white" transform="translate(0 0.916748)"/>
</clipPath>
<clipPath id="clip1_824_35092">
<rect width="58.3555" height="19.2096" fill="white" transform="translate(0 11.312)"/>
</clipPath>
</defs>
</svg>
