<svg width="50" height="41" viewBox="0 0 50 41" fill="none" xmlns="http://www.w3.org/2000/svg">
<g clip-path="url(#clip0_824_35099)">
<g opacity="0.7" clip-path="url(#clip1_824_35099)">
<path d="M0.0429688 29.1527H9.57019V30.5165H0.0429688V29.1527Z" fill="#13121C"/>
<path d="M0.0429688 26.5367H9.57019V27.9054H0.0429688V26.5367Z" fill="#13121C"/>
<path d="M2.76172 23.9256H6.84827V25.2943H2.76172V23.9256Z" fill="#13121C"/>
<path d="M2.76172 21.3146H6.84827V22.6833H2.76172V21.3146Z" fill="#13121C"/>
<path d="M2.76172 18.7034H6.84827V20.0721H2.76172V18.7034Z" fill="#13121C"/>
<path d="M2.76172 16.0875H6.84827V17.4561H2.76172V16.0875Z" fill="#13121C"/>
<path d="M9.57019 13.4763H0.0429688V14.845H9.57019V13.4763Z" fill="#13121C"/>
<path d="M9.57019 10.8652H0.0429688V12.2339H9.57019V10.8652Z" fill="#13121C"/>
<path d="M10.9297 27.9053H25.5821C25.8296 27.4831 26.014 27.022 26.1257 26.5367H10.9297V27.9053Z" fill="#13121C"/>
<path d="M24.4415 21.3146H13.6523V22.6832H25.582C25.2714 22.159 24.8879 21.698 24.4415 21.3146Z" fill="#13121C"/>
<path d="M13.6523 18.7034V20.072H24.4415C24.8977 19.6886 25.2811 19.2275 25.582 18.7034H13.6523Z" fill="#13121C"/>
<path d="M25.5822 13.4763H10.9297V14.8449H26.1257C25.9995 14.3596 25.8151 13.8985 25.5822 13.4763Z" fill="#13121C"/>
<path d="M21.0782 10.8652H10.9297V12.2338H24.5775C23.665 11.3893 22.4274 10.8652 21.0782 10.8652Z" fill="#13121C"/>
<path d="M17.734 16.0874H13.6523V17.4561H17.734V16.0874Z" fill="#13121C"/>
<path d="M21.8203 17.4561H26.0913C26.2126 17.0193 26.2757 16.5582 26.2757 16.0874H21.8203V17.4561Z" fill="#13121C"/>
<path d="M13.6523 23.9255H17.734V25.2942H13.6523V23.9255Z" fill="#13121C"/>
<path d="M21.8203 23.9255V25.2942H26.2757C26.2757 24.8234 26.2126 24.3624 26.0913 23.9255H21.8203Z" fill="#13121C"/>
<path d="M10.9297 30.5068L21.0782 30.5213C22.4371 30.5213 23.665 29.9972 24.5823 29.1526H10.9297V30.5068Z" fill="#13121C"/>
<path d="M27.2656 29.1526H34.0701V30.5164H27.2656V29.1526Z" fill="#13121C"/>
<path d="M27.2656 26.5367H34.0701V27.9053H27.2656V26.5367Z" fill="#13121C"/>
<path d="M29.9844 23.9255H34.0709V25.2941H29.9844V23.9255Z" fill="#13121C"/>
<path d="M29.9844 21.3145H34.0709V22.6832H29.9844V21.3145Z" fill="#13121C"/>
<path d="M35.9629 13.4762H27.2656V14.8449H36.4337L35.9629 13.4762Z" fill="#13121C"/>
<path d="M35.0602 10.8651H27.2656V12.2337H35.5309L35.0602 10.8651Z" fill="#13121C"/>
<path d="M42.2344 29.1526H49.0437V30.5164H42.2344V29.1526Z" fill="#13121C"/>
<path d="M42.2344 26.5367H49.0437V27.9053H42.2344V26.5367Z" fill="#13121C"/>
<path d="M42.2344 23.9255H46.3209V25.2941H42.2344V23.9255Z" fill="#13121C"/>
<path d="M42.2344 21.3145H46.3209V22.6832H42.2344V21.3145Z" fill="#13121C"/>
<path d="M42.2344 20.072H46.3209V18.7034H42.2344H38.5361L38.1527 19.81L37.7692 18.7034H34.0709H29.9844V20.072H34.0709V18.815L34.5029 20.072H41.8024L42.2344 18.815V20.072Z" fill="#13121C"/>
<path d="M46.3197 16.0874H39.4376L38.9668 17.4561H46.3197V16.0874Z" fill="#13121C"/>
<path d="M41.2481 10.8651L40.7773 12.2337H49.0427V10.8651H41.2481Z" fill="#13121C"/>
<path d="M38.1524 30.5067L38.6232 29.1526H37.6816L38.1524 30.5067Z" fill="#13121C"/>
<path d="M37.25 27.9053H39.0555L39.5408 26.5367H36.7695L37.25 27.9053Z" fill="#13121C"/>
<path d="M36.3321 25.2941H39.9721L40.4526 23.9255H35.8516L36.3321 25.2941Z" fill="#13121C"/>
<path d="M35.42 22.6832H40.8898L41.3557 21.3145H34.9492L35.42 22.6832Z" fill="#13121C"/>
<path d="M29.9844 17.4561H37.3373L36.8665 16.0874H29.9844V17.4561Z" fill="#13121C"/>
<path d="M39.875 14.8449H49.0431V13.4762H40.3409L39.875 14.8449Z" fill="#13121C"/>
</g>
</g>
<defs>
<clipPath id="clip0_824_35099">
<rect width="49" height="40" fill="white" transform="translate(0.0429688 0.693359)"/>
</clipPath>
<clipPath id="clip1_824_35099">
<rect width="49" height="19.6563" fill="white" transform="translate(0.0429688 10.8652)"/>
</clipPath>
</defs>
</svg>
