<svg width="34" height="40" viewBox="0 0 34 40" fill="none" xmlns="http://www.w3.org/2000/svg">
<g clip-path="url(#clip0_824_35098)">
<g opacity="0.7" clip-path="url(#clip1_824_35098)">
<path d="M0 8.71242H5.02098V22.1813C5.02098 24.3175 5.98904 25.5889 6.77639 26.1181C5.95677 26.8344 3.47209 27.4669 1.60052 25.9374C0.503389 25.0338 0 23.5301 0 22.1297V8.71242ZM31.3586 19.9096V18.4898H32.8945V13.5333H31.2101C30.5583 10.5453 27.9058 8.3252 24.737 8.3252C21.0843 8.3252 18.1091 11.2939 18.1091 14.9532V26.5182C19.1417 26.6666 20.3937 26.4988 21.4457 25.6147C22.5492 24.7112 23.0462 23.2139 23.0462 21.807V21.3746H25.5502V16.4181H23.0462V14.9144C23.0462 12.6814 26.415 12.6814 26.415 14.9144V19.8902C26.415 23.543 29.3837 26.5182 33.043 26.5182V21.5811C32.1072 21.5811 31.3586 20.826 31.3586 19.9096V19.9096ZM12.3653 13.5204V20.8131C12.3653 21.807 10.8293 21.807 10.8293 20.8131V13.5204H5.87287V22.0845C5.87287 23.6205 6.38917 25.5695 8.77704 26.2084C11.1649 26.8409 12.5331 25.5243 12.5331 25.5243C12.3976 26.3891 11.5973 27.028 10.2808 27.1571C9.28043 27.2604 8.00905 26.9248 7.37658 26.6537V31.1907C8.99646 31.6747 10.7002 31.8231 12.3847 31.494C15.4244 30.9067 17.3411 28.3704 17.3411 24.9887V13.4882H12.3653V13.5204V13.5204Z" fill="#13121C"/>
</g>
</g>
<defs>
<clipPath id="clip0_824_35098">
<rect width="33.043" height="40" fill="white"/>
</clipPath>
<clipPath id="clip1_824_35098">
<rect width="33.043" height="33.043" fill="white" transform="translate(0 3.47852)"/>
</clipPath>
</defs>
</svg>
