<svg width="71" height="41" viewBox="0 0 71 41" fill="none" xmlns="http://www.w3.org/2000/svg">
<g clip-path="url(#clip0_824_35094)">
<g opacity="0.7" clip-path="url(#clip1_824_35094)">
<path d="M7.84997 9.71936H10.0011V10.1245H9.59596C9.5251 10.1245 9.40156 10.2063 9.22351 10.368C9.04546 10.5297 8.95643 10.6569 8.95643 10.7404V16.9177C8.95643 17.0031 9.04546 17.1267 9.22351 17.2902C9.40156 17.4537 9.5251 17.5354 9.59596 17.5354H10.0011V17.9388H6.82708V17.5318H7.23224C7.3031 17.5318 7.42483 17.4501 7.59561 17.2865C7.76639 17.123 7.85179 16.9995 7.85179 16.9141V10.933L4.86852 18.0859L1.88889 10.8095V16.9159C1.88889 17.0013 1.97428 17.1248 2.14325 17.2884C2.31221 17.4519 2.43576 17.5336 2.50662 17.5336H2.90996V17.937H0.355469V17.5318H0.760626C0.846018 17.5318 0.973197 17.4501 1.14398 17.2865C1.31476 17.123 1.39834 16.9995 1.39834 16.9141V10.7404C1.39834 10.6569 1.31295 10.5315 1.14398 10.368C0.975014 10.2045 0.846018 10.1245 0.760626 10.1245H0.355469V9.71936H2.73917L5.21009 15.873H5.27368L7.84997 9.71936ZM12.9608 17.1067C13.3233 17.1283 13.6846 17.0477 14.0036 16.8741C14.2683 16.6929 14.4867 16.452 14.6414 16.171H14.9829C14.8311 16.6988 14.5406 17.1762 14.1417 17.5536C13.7041 17.9166 13.1449 18.0997 12.5774 18.066C12.24 18.0782 11.9043 18.0113 11.5974 17.8706C11.2904 17.7299 11.0206 17.5193 10.8096 17.2556C10.367 16.7088 10.1332 16.0223 10.1501 15.3189C10.1304 14.9424 10.1859 14.5658 10.3135 14.2111C10.4411 13.8564 10.6382 13.5307 10.8932 13.2531C11.1213 13.0078 11.3982 12.8129 11.7061 12.6808C12.0139 12.5488 12.346 12.4826 12.681 12.4864C13.0452 12.4781 13.4074 12.5436 13.7456 12.679C14.0526 12.8098 14.3338 12.9944 14.5759 13.2241L13.8001 14.4432L13.4804 14.4632C13.553 14.1003 13.5311 13.725 13.4168 13.373C13.3489 13.2093 13.2281 13.073 13.0736 12.9861C12.9191 12.8991 12.7399 12.8665 12.5647 12.8934C12.3363 12.8789 12.1081 12.9242 11.9025 13.0249C11.697 13.1256 11.5213 13.2781 11.3928 13.4675C11.1186 13.9232 10.9852 14.4497 11.0095 14.981C10.9941 15.5314 11.1794 16.0687 11.5309 16.4926C11.7075 16.6961 11.9279 16.857 12.1755 16.9634C12.4231 17.0697 12.6916 17.1187 12.9608 17.1067ZM18.2405 17.937H15.0247V17.5318H15.4353C15.5207 17.5318 15.6479 17.4501 15.8187 17.2865C15.9895 17.123 16.073 16.9995 16.073 16.9141V10.7404C16.073 10.6569 15.9895 10.5315 15.8187 10.368C15.6479 10.2045 15.5153 10.1245 15.4353 10.1245H15.0247V9.71936H18.2405V10.1245H17.8354C17.75 10.1245 17.6228 10.2063 17.452 10.368C17.2812 10.5297 17.1977 10.6569 17.1977 10.7404V14.1052L20.1355 10.8258C20.1918 10.755 20.1355 10.6205 19.9865 10.4225C19.8375 10.2244 19.7158 10.1245 19.645 10.1245H19.2507V9.71936H22.2303V10.1245H21.8252C21.625 10.1933 21.4413 10.3028 21.2856 10.4461C21.0003 10.6659 20.8314 10.8095 20.7732 10.8622L18.7747 13.0115L21.6489 16.8269C21.7884 16.9894 21.9491 17.1324 22.1268 17.252C22.2694 17.3832 22.4413 17.4785 22.6282 17.53H23.2241C23.3652 17.5007 23.4929 17.4261 23.5875 17.3174C23.7438 17.1739 23.8219 17.054 23.8219 16.9541V13.5947C23.8219 13.5093 23.7438 13.3948 23.5875 13.2531C23.4929 13.1445 23.3652 13.0698 23.2241 13.0406H22.9026V12.6354H24.7975V16.9577C24.7975 17.0576 24.8793 17.1775 25.0428 17.3211C25.1369 17.4241 25.2586 17.4979 25.3935 17.5336H26.0548C26.1257 17.5336 26.2365 17.4628 26.3945 17.3211C26.5526 17.1793 26.6289 17.0576 26.6289 16.9577V13.5947C26.6289 13.5093 26.5508 13.3948 26.3945 13.2531C26.2383 13.1114 26.1257 13.0406 26.0548 13.0406H25.7132V12.6354H27.3956L27.6082 13.7164C27.8971 13.4114 28.2067 13.1267 28.5348 12.8643C28.868 12.6138 29.2773 12.4855 29.6939 12.501C29.8896 12.4974 30.0839 12.5334 30.2653 12.6068C30.4467 12.6801 30.6114 12.7894 30.7495 12.9279C30.8949 13.0721 31.0088 13.2448 31.0838 13.4353C31.1589 13.6258 31.1935 13.8298 31.1856 14.0344V16.9577C31.1856 17.0576 31.2637 17.1775 31.4199 17.3211C31.5762 17.4646 31.6888 17.5336 31.7597 17.5336H32.1013V17.937H29.3124V17.5318H29.6067C29.7477 17.5022 29.8752 17.4276 29.9701 17.3192C30.1264 17.1757 30.2045 17.0558 30.2045 16.9559V14.1052C30.2149 13.8667 30.1387 13.6325 29.9901 13.4457C29.9104 13.3572 29.8114 13.2881 29.7009 13.2437C29.5904 13.1993 29.4712 13.1808 29.3524 13.1895C28.9312 13.2024 28.5249 13.348 28.1914 13.6056C27.8026 13.8818 27.6082 14.1125 27.6082 14.2978V16.9577C27.6082 17.0576 27.6863 17.1775 27.8426 17.3211C27.9372 17.4297 28.0649 17.5044 28.2059 17.5336H28.5039V17.937H20.8859L18.028 13.8291L17.1977 14.723V16.9159C17.1977 17.0013 17.2812 17.1248 17.452 17.2884C17.6228 17.4519 17.75 17.5336 17.8354 17.5336H18.2405V17.937ZM21.093 27.2029L21.0675 27.1775C21.3383 27.4046 21.6126 27.6317 21.8888 27.8588C22.1649 28.0859 22.4593 28.3057 22.7717 28.5201H23.2605V28.9453H22.3666C22.0027 28.9514 21.641 28.8866 21.3019 28.7545C20.9397 28.5923 20.6083 28.3686 20.3226 28.0932C20.0004 28.4177 19.6118 28.6687 19.1835 28.829C18.6879 29.0013 18.1655 29.0838 17.641 29.0724C16.9742 29.0759 16.3288 28.8378 15.8241 28.402C15.563 28.1913 15.354 27.9231 15.2134 27.6184C15.0729 27.3136 15.0045 26.9806 15.0138 26.6451C15.0084 26.1462 15.1337 25.6545 15.3772 25.2189C15.6134 24.8005 15.9444 24.4433 16.3437 24.176C16.1527 23.9335 15.9916 23.6687 15.8641 23.3875C15.7383 23.0919 15.6764 22.773 15.6824 22.4518C15.6672 22.2015 15.7068 21.9509 15.7984 21.7174C15.89 21.4839 16.0315 21.2733 16.2129 21.1001C16.6187 20.7622 17.1374 20.5908 17.6646 20.6205C17.9683 20.6102 18.2714 20.6533 18.5603 20.7476C18.7497 20.8255 18.9515 20.8692 19.1562 20.8766C19.2349 20.8786 19.3136 20.8713 19.3906 20.8548C19.455 20.8337 19.5086 20.788 19.5396 20.7276H19.9029V22.6644H19.5396C19.4832 22.2645 19.2907 21.8962 18.9945 21.6215C18.8294 21.4244 18.6224 21.2666 18.3885 21.1597C18.1547 21.0529 17.8999 20.9996 17.6428 21.0038C17.2694 20.9833 16.9003 21.0924 16.5981 21.3127C16.4713 21.4162 16.3705 21.5481 16.304 21.6977C16.2374 21.8472 16.2068 22.0103 16.2147 22.1739C16.2126 22.4942 16.3262 22.8045 16.5345 23.0478C16.7638 23.315 17.0569 23.52 17.3866 23.6437C17.9111 24.213 18.4785 24.7841 19.089 25.357C19.6995 25.9299 20.2815 26.4659 20.835 26.9649C20.9865 26.722 21.0981 26.4564 21.1657 26.1782C21.2322 25.88 21.2645 25.5753 21.2619 25.2698C21.2693 25.1057 21.2417 24.942 21.1809 24.7894C21.1202 24.6369 21.0276 24.499 20.9095 24.385C20.6493 24.1554 20.3093 24.0373 19.9629 24.0561V23.6437H22.8844V24.027H22.5664C22.4956 24.027 22.3557 24.147 22.1504 24.3904C21.9974 24.5337 21.8899 24.7188 21.8415 24.9228V24.9446C21.8274 25.3535 21.7559 25.7583 21.629 26.1473C21.5068 26.524 21.326 26.879 21.093 27.1993V27.2029ZM18.3041 28.4384C18.6401 28.4429 18.9745 28.3926 19.2943 28.2894C19.5779 28.1942 19.8465 28.059 20.0919 27.8878L20.0283 27.8461C19.4227 27.3059 18.8268 26.7523 18.2405 26.1855C17.6543 25.6186 17.0862 25.0221 16.5363 24.3959C16.3333 24.6086 16.168 24.8543 16.0476 25.1226C15.9209 25.4475 15.8627 25.7952 15.8768 26.1437C15.885 26.4484 15.9587 26.7477 16.0929 27.0214C16.2271 27.2951 16.4186 27.5367 16.6544 27.7298C17.0935 28.1676 17.6843 28.4194 18.3041 28.4329V28.4384ZM24.2016 11.3382H24.1798C24.0013 11.3398 23.8295 11.2705 23.702 11.1456C23.6365 11.0866 23.5844 11.0142 23.5493 10.9333C23.5142 10.8524 23.4969 10.765 23.4985 10.6768V10.6569C23.4933 10.5634 23.5089 10.47 23.544 10.3833C23.5792 10.2966 23.6332 10.2188 23.702 10.1554C23.8425 10.039 24.0192 9.9753 24.2016 9.9753C24.384 9.9753 24.5608 10.039 24.7012 10.1554C24.7701 10.2188 24.824 10.2966 24.8592 10.3833C24.8943 10.47 24.9099 10.5634 24.9047 10.6569H24.8829C24.8975 10.6569 24.9047 10.6569 24.9047 10.6768C24.9063 10.765 24.889 10.8524 24.8539 10.9333C24.8188 11.0142 24.7667 11.0866 24.7012 11.1456C24.5801 11.2678 24.4155 11.3371 24.2434 11.3382H24.2016ZM29.6067 28.3911C30.1909 28.4248 30.7712 28.2762 31.2673 27.966C31.6969 27.6426 32.0401 27.2182 32.2666 26.7305H32.6954C32.4602 27.4221 32.0221 28.0268 31.4381 28.4656C30.8375 28.8955 30.1124 29.1164 29.3742 29.0942C28.8362 29.1135 28.3009 29.0089 27.8098 28.7884C27.3186 28.5678 26.8848 28.2373 26.5417 27.8224C25.8303 26.9738 25.4519 25.8954 25.477 24.7883C25.4484 23.7111 25.7945 22.6573 26.4563 21.8069C26.7775 21.4023 27.1899 21.0797 27.6598 20.8652C28.1297 20.6508 28.6438 20.5507 29.1598 20.5732C29.5444 20.5644 29.9274 20.626 30.2899 20.7549C30.5947 20.8752 30.9196 20.9368 31.2473 20.9366C31.3495 20.9416 31.4515 20.9229 31.5453 20.8821C31.6244 20.8415 31.6962 20.7881 31.7579 20.724H32.0558V23.6219H31.6925C31.631 23.0371 31.402 22.4826 31.033 22.0249C30.8359 21.7212 30.5638 21.4735 30.2429 21.3058C29.9221 21.1381 29.5634 21.0559 29.2016 21.0674C28.893 21.051 28.5844 21.0983 28.2949 21.2065C28.0055 21.3147 27.7414 21.4813 27.5192 21.696C27.0497 22.2611 26.7926 22.9726 26.7924 23.7073V23.6655C26.7779 23.8217 26.767 23.978 26.7597 24.1342C26.7597 24.2905 26.7488 24.4522 26.7488 24.623C26.7488 24.821 26.7488 25.0245 26.7706 25.2298C26.7924 25.4351 26.7997 25.6241 26.8124 25.7948C26.8691 26.4856 27.1623 27.1357 27.6427 27.6353C27.8987 27.8921 28.2058 28.0922 28.5442 28.2224C28.8826 28.3526 29.2446 28.4101 29.6067 28.3911ZM36.3291 16.4472C36.3417 16.6689 36.3053 16.8906 36.2223 17.0966C36.1394 17.3027 36.0121 17.4878 35.8494 17.639C35.5101 17.9313 35.0724 18.0839 34.6249 18.066C34.3326 18.0748 34.0419 18.0202 33.7728 17.9061C33.5604 17.8026 33.3276 17.748 33.0914 17.7462C33.0103 17.7383 32.9287 17.7568 32.8589 17.7989L32.6881 17.937H32.441V16.0638H32.7608C32.8201 16.4289 32.9953 16.7652 33.2604 17.0231C33.4289 17.2204 33.6402 17.3767 33.8782 17.48C34.1163 17.5832 34.3747 17.6308 34.634 17.619C34.9003 17.6329 35.1654 17.5738 35.4007 17.4482C35.4913 17.3905 35.5648 17.3094 35.6134 17.2135C35.662 17.1176 35.6839 17.0104 35.6768 16.9032C35.6865 16.7753 35.661 16.6473 35.603 16.5329C35.5451 16.4186 35.4568 16.3223 35.348 16.2546C35.1327 16.1222 34.9087 16.0044 34.6776 15.9021C34.4777 15.8185 34.2978 15.7404 34.1325 15.6695C33.9672 15.5987 33.78 15.5206 33.5675 15.4352C33.2666 15.2962 32.9929 15.1049 32.759 14.8701C32.6499 14.7515 32.5654 14.6123 32.5105 14.4607C32.4556 14.3091 32.4314 14.1482 32.4392 13.9871C32.4259 13.7852 32.4573 13.5829 32.5311 13.3945C32.6049 13.206 32.7193 13.0362 32.8662 12.897C33.1393 12.7034 33.4563 12.5806 33.7886 12.5397C34.121 12.4988 34.4582 12.541 34.7702 12.6627C34.9526 12.7534 35.1533 12.8012 35.3571 12.8026C35.4192 12.8046 35.4812 12.7934 35.5387 12.7698C35.5914 12.7465 35.6335 12.7044 35.6568 12.6518H35.933V14.2869H35.6132C35.5616 13.9639 35.4089 13.6657 35.1772 13.4348C35.0349 13.2608 34.8542 13.1222 34.6493 13.0298C34.4444 12.9374 34.2208 12.8939 33.9962 12.9025C33.7499 12.8823 33.5045 12.9506 33.304 13.0951C33.2322 13.1543 33.1747 13.229 33.136 13.3137C33.0973 13.3984 33.0783 13.4907 33.0805 13.5838C33.074 13.6817 33.092 13.7797 33.1329 13.8688C33.1738 13.958 33.2364 14.0355 33.3149 14.0943C33.5163 14.2342 33.7297 14.3558 33.9526 14.4577C34.1525 14.5413 34.3396 14.6194 34.5177 14.6903L35.1027 14.9246C35.4081 15.0529 35.689 15.233 35.933 15.457C36.0677 15.5821 36.1737 15.7349 36.2436 15.9049C36.3135 16.0749 36.3458 16.258 36.3382 16.4417L36.3291 16.4472ZM37.7226 24.2396C37.9934 24.504 38.2048 24.823 38.3426 25.1754C38.4805 25.5279 38.5416 25.9056 38.522 26.2836C38.5413 26.6631 38.4801 27.0424 38.3423 27.3966C38.2045 27.7507 37.9933 28.0717 37.7226 28.3384C37.2335 28.8243 36.5715 29.0961 35.8821 29.0942C35.1851 29.0994 34.5146 28.8275 34.018 28.3384C33.7477 28.0716 33.5368 27.7505 33.3993 27.3964C33.2619 27.0422 33.2009 26.663 33.2204 26.2836C33.2 25.9227 33.2539 25.5615 33.3788 25.2224C33.5037 24.8832 33.6969 24.5733 33.9464 24.3118C34.1959 24.0504 34.4965 23.8429 34.8295 23.7024C35.1624 23.5618 35.5207 23.4911 35.8821 23.4947C36.5727 23.4897 37.2373 23.7574 37.7317 24.2396H37.7226ZM37.4664 27.1611V27.2029C37.481 27.0466 37.49 26.8904 37.4973 26.7341C37.5046 26.5779 37.5082 26.4217 37.5082 26.2654C37.5082 26.1092 37.5082 25.9584 37.4973 25.8094C37.4864 25.6604 37.481 25.5205 37.4664 25.3933C37.4333 25.0046 37.2723 24.6379 37.0086 24.3504C36.8583 24.2137 36.6817 24.1092 36.4895 24.0433C36.2974 23.9774 36.0938 23.9514 35.8912 23.9671C35.693 23.9531 35.4939 23.9798 35.3064 24.0458C35.1189 24.1117 34.9469 24.2154 34.8011 24.3504C34.5403 24.6311 34.3793 24.99 34.3433 25.3715V25.3443C34.315 25.4918 34.2974 25.6412 34.2906 25.7912C34.2906 25.9475 34.2797 26.1037 34.2797 26.2581C34.2797 26.4126 34.2797 26.567 34.2906 26.716C34.2969 26.8559 34.3145 26.995 34.3433 27.132C34.3854 27.5119 34.5455 27.869 34.8011 28.1531C34.9437 28.294 35.1147 28.403 35.3026 28.4728C35.4906 28.5427 35.6912 28.5718 35.8912 28.5583C36.0965 28.5763 36.3032 28.5504 36.4977 28.4825C36.6923 28.4145 36.8701 28.3059 37.0195 28.164C37.2683 27.8838 37.4244 27.5335 37.4664 27.1611ZM39.2124 18.0769C38.8765 18.0832 38.5435 18.0127 38.239 17.8707C37.9345 17.7287 37.6665 17.5189 37.4555 17.2575C36.9952 16.7136 36.749 16.0204 36.7633 15.308C36.7413 14.5776 36.9919 13.8652 37.4664 13.3095C37.677 13.0524 37.9442 12.8475 38.2471 12.7107C38.5499 12.5739 38.8803 12.509 39.2124 12.5209C39.4702 12.5066 39.728 12.5478 39.9685 12.6419C40.2089 12.7359 40.4263 12.8805 40.6059 13.066C40.9394 13.4228 41.133 13.8879 41.151 14.3759L41.1728 14.7593L37.6372 15.0427C37.6444 15.553 37.8236 16.046 38.1459 16.4417C38.3079 16.6592 38.5204 16.8339 38.7652 16.9508C39.0099 17.0676 39.2794 17.123 39.5503 17.1121C39.9163 17.1327 40.2808 17.0522 40.6041 16.8796C40.8674 16.7079 41.0835 16.4731 41.2327 16.1964H41.5525C41.4172 16.7215 41.1363 17.1976 40.7422 17.57C40.3133 17.9227 39.7667 18.1 39.2124 18.066V18.0769ZM39.1906 12.9243C38.9584 12.9049 38.7252 12.9467 38.5141 13.0455C38.3031 13.1443 38.1217 13.2967 37.9879 13.4875C37.7481 13.837 37.6114 14.2468 37.5936 14.6703L40.2553 14.4432C40.3008 14.0869 40.2603 13.725 40.1372 13.3876C40.0209 13.0727 39.7054 12.9146 39.1906 12.9134V12.9243ZM45.6204 28.5492C45.7058 28.5492 45.8221 28.4747 45.9711 28.3257C46.1201 28.1767 46.1946 28.0604 46.1946 27.9751V25.0681C46.2041 24.8413 46.1327 24.6184 45.9929 24.4395C45.9105 24.3521 45.8092 24.2846 45.6968 24.2421C45.5845 24.1996 45.4639 24.1832 45.3443 24.1942C44.9673 24.2067 44.6045 24.3412 44.3105 24.5776C43.9629 24.8343 43.7891 25.0475 43.7891 25.2171V27.9841C43.7891 28.0695 43.8635 28.1858 44.0125 28.3348C44.1615 28.4838 44.2723 28.5583 44.3432 28.5583H44.663V28.9634H41.9377V28.5583H42.2357C42.321 28.5583 42.4373 28.4838 42.5863 28.3348C42.7353 28.1858 42.8098 28.0695 42.8098 27.9841V25.0772C42.8215 24.8416 42.7458 24.61 42.5972 24.4268C42.5154 24.341 42.4156 24.2746 42.305 24.2321C42.1944 24.1897 42.0758 24.1724 41.9577 24.1815C41.5708 24.1942 41.1996 24.3369 40.9039 24.5866C40.5563 24.8555 40.3825 25.0826 40.3825 25.268V27.9932C40.3825 28.0786 40.457 28.1949 40.6059 28.3439C40.7549 28.4929 40.873 28.5673 40.9584 28.5673H41.2564V28.9725H38.5311V28.5673H38.8509C38.9217 28.5673 39.0325 28.4929 39.1797 28.3439C39.3269 28.1949 39.4032 28.0786 39.4032 27.9932V24.6012C39.4032 24.5176 39.3287 24.4031 39.1797 24.2614C39.0307 24.1197 38.9217 24.0488 38.8509 24.0488H38.5311V23.6437H40.1663L40.3788 24.6666C40.6913 24.3395 40.9754 24.0658 41.2309 23.8454C41.5424 23.6072 41.9298 23.4903 42.321 23.5165C42.6556 23.5098 42.9835 23.6104 43.2567 23.8036C43.3927 23.9018 43.5066 24.0273 43.5911 24.1722C43.6756 24.3171 43.7288 24.4781 43.7473 24.6448C44.0725 24.3323 44.3723 24.0688 44.6412 23.8563C44.9491 23.6312 45.3248 23.5183 45.7058 23.5365C46.0915 23.527 46.4657 23.6685 46.7487 23.9308C46.8953 24.0763 47.0092 24.2513 47.0828 24.4443C47.1565 24.6373 47.1881 24.8438 47.1757 25.0499V27.9569C47.1757 28.0423 47.2502 28.1586 47.3991 28.3075C47.5481 28.4565 47.6571 28.531 47.728 28.531H48.0477V28.9362H45.3225V28.531L45.6204 28.5492ZM42.0649 13.651C41.9761 13.512 41.8642 13.3891 41.7342 13.2877C41.5525 13.1314 41.4326 13.0533 41.3708 13.0533H41.1365V12.6354H44.0107V13.0406H43.671C43.6001 13.0406 43.5074 13.1114 43.3948 13.2531C43.2996 13.3523 43.2396 13.4799 43.224 13.6165L44.4958 16.2346L45.6677 13.6365C45.6683 13.5651 45.6544 13.4943 45.627 13.4285C45.5995 13.3626 45.5589 13.3029 45.5078 13.2531C45.3867 13.1114 45.2904 13.0406 45.2189 13.0406H44.8683V12.6354H47.0194V13.0406H46.785C46.7142 13.0406 46.6034 13.1151 46.4544 13.264C46.3375 13.3703 46.2403 13.4964 46.1673 13.6365L44.3505 17.49L42.788 20.4933L42.3247 20.2571L43.9417 17.3392L42.0649 13.651ZM51.7105 23.5092C52.0074 23.4975 52.3026 23.5594 52.5699 23.6894C52.8371 23.8193 53.068 24.0134 53.2421 24.2542C53.6313 24.8307 53.8226 25.518 53.7872 26.2127C53.8158 26.944 53.5982 27.6637 53.1694 28.2567C52.9925 28.5096 52.7566 28.7156 52.4821 28.8568C52.2077 28.998 51.9029 29.0701 51.5942 29.067C51.2039 29.0867 50.8161 28.994 50.4769 28.7999C50.1768 28.5969 49.9316 28.3229 49.7629 28.0023V30.5568C49.7629 30.6567 49.841 30.7766 49.9972 30.9202C50.1535 31.0637 50.2679 31.1327 50.3388 31.1327H50.6822V31.5215H47.877V31.1164H48.2185C48.3562 31.0874 48.4798 31.0124 48.5692 30.9038C48.6877 30.816 48.7678 30.6858 48.7927 30.5404V24.6012C48.7927 24.5176 48.7182 24.4031 48.5692 24.2614C48.4798 24.1528 48.3562 24.0778 48.2185 24.0488H47.877V23.6219H49.6012L49.7719 24.7302C49.9659 24.3565 50.247 24.0349 50.5913 23.7927C50.9271 23.5858 51.3163 23.4821 51.7105 23.4947V23.5092ZM52.7752 27.0866V27.1066L52.817 26.6815C52.8315 26.5402 52.8388 26.3983 52.8388 26.2563C52.839 26.1318 52.8317 26.0075 52.817 25.8839C52.8024 25.7621 52.7879 25.6459 52.7752 25.5314C52.7403 25.1587 52.5912 24.8059 52.3482 24.5212C52.2317 24.3991 52.0903 24.3034 51.9336 24.2407C51.7768 24.178 51.6084 24.1498 51.4398 24.1579C51.2433 24.1496 51.0473 24.1821 50.8641 24.2534C50.6808 24.3247 50.5143 24.4332 50.3751 24.5721C50.0976 24.864 49.8933 25.2177 49.7792 25.6041V26.9885C49.777 27.1871 49.8155 27.384 49.8924 27.5671C49.9693 27.7502 50.0829 27.9157 50.2261 28.0532C50.3676 28.1983 50.5373 28.3129 50.7248 28.3897C50.9123 28.4666 51.1136 28.5042 51.3163 28.5001H51.3381C51.5269 28.5146 51.7165 28.4867 51.8932 28.4185C52.0698 28.3503 52.229 28.2435 52.3591 28.1059C52.5973 27.8102 52.7422 27.4503 52.7752 27.0721V27.0866ZM64.8045 27.9805C64.8045 28.0659 64.8827 28.1822 65.0389 28.3312C65.1952 28.4801 65.3078 28.5546 65.3787 28.5546H65.6984V28.9598H62.9096V28.5546H63.2184C63.2911 28.5546 63.4001 28.4801 63.56 28.3312C63.7199 28.1822 63.7944 28.0659 63.7944 27.9805V25.0917C63.8018 24.859 63.7308 24.6306 63.5927 24.4431C63.517 24.3514 63.4204 24.2793 63.311 24.2328C63.2016 24.1864 63.0826 24.1669 62.9641 24.176C62.5416 24.1898 62.1346 24.3389 61.8031 24.6012C61.4119 24.887 61.2169 25.1141 61.2181 25.2825V27.966C61.2181 28.0659 61.2962 28.1858 61.4525 28.3293C61.5471 28.438 61.6747 28.5127 61.8158 28.5419H62.1283V28.9471H57.608L57.459 27.8406C57.2351 28.1349 56.9858 28.4091 56.7141 28.66C56.4377 28.9199 56.0706 29.0614 55.6912 29.0543C55.5125 29.0555 55.3353 29.0203 55.1706 28.9506C55.006 28.8809 54.8573 28.7783 54.7338 28.6491C54.5985 28.5122 54.4928 28.349 54.4231 28.1696C54.3535 27.9903 54.3213 27.7985 54.3286 27.6062C54.3083 27.3804 54.3524 27.1535 54.456 26.9519C54.5596 26.7502 54.7183 26.5821 54.9136 26.4671C55.2696 26.261 55.6532 26.1069 56.0528 26.0092L57.4372 25.7312L57.459 25.0935C57.475 24.7721 57.3685 24.4566 57.1611 24.2105C57.0229 24.0874 56.8606 23.9944 56.6845 23.9374C56.5083 23.8805 56.3223 23.8609 56.1382 23.8799C55.9595 23.8584 55.7785 23.8868 55.6149 23.9618C55.4514 24.0368 55.3118 24.1556 55.2116 24.305C55.1319 24.4808 55.0953 24.673 55.1048 24.8658C55.1142 25.0585 55.1695 25.2462 55.2661 25.4133H54.8827L54.156 24.3486C54.447 24.0624 54.7938 23.839 55.1748 23.6924C55.5558 23.5458 55.9629 23.4792 56.3707 23.4965C56.8921 23.4787 57.4059 23.6242 57.8406 23.9126C58.0342 24.0456 58.1907 24.2259 58.295 24.4364C58.3993 24.647 58.448 24.8807 58.4365 25.1153V27.9678C58.4365 28.0532 58.5146 28.1658 58.6709 28.3075C58.8271 28.4493 58.9398 28.5219 59.0106 28.5219H59.6501C59.7916 28.4926 59.9194 28.4172 60.0135 28.3075C60.1698 28.1658 60.2479 28.0532 60.2479 27.9678V24.6012C60.2479 24.5176 60.1698 24.4031 60.0135 24.2614C59.9189 24.1528 59.7912 24.0781 59.6501 24.0488H59.3304V23.6219H61.0128L61.2253 24.7302C61.51 24.4274 61.8134 24.1428 62.1338 23.8781C62.4693 23.6239 62.8833 23.4953 63.3038 23.5147C63.499 23.5112 63.6929 23.547 63.874 23.62C64.055 23.6931 64.2195 23.8018 64.3576 23.9398C64.5036 24.084 64.618 24.257 64.6934 24.4478C64.7688 24.6386 64.8036 24.8431 64.7955 25.0481L64.8045 27.9805ZM57.459 26.0928L56.1872 26.4126C55.9141 26.457 55.6653 26.5959 55.4841 26.805C55.3524 26.9958 55.2849 27.2237 55.2915 27.4554V27.4754C55.2899 27.5839 55.3098 27.6916 55.35 27.7923C55.3902 27.893 55.45 27.9848 55.5259 28.0623C55.5993 28.1411 55.6886 28.2036 55.7879 28.2455C55.8871 28.2875 55.9941 28.308 56.1018 28.3057H56.1327C56.418 28.2942 56.6898 28.1815 56.8994 27.9878C57.1155 27.8149 57.2999 27.6059 57.4445 27.37L57.459 26.0928ZM71 23.6437V24.0488H70.7438C70.6875 24.0488 70.5839 24.1233 70.435 24.2723C70.3221 24.3801 70.2188 24.4974 70.1261 24.623L68.3383 28.4983L66.7413 31.4798L66.2944 31.2454L67.8914 28.3275L66.0182 24.6448C65.9288 24.5062 65.8171 24.3834 65.6875 24.2814C65.5058 24.1252 65.3932 24.047 65.3369 24.047H65.0807V23.6437H67.955V24.0488H67.6352C67.5643 24.0488 67.468 24.1197 67.3481 24.2614C67.2483 24.3586 67.1843 24.4866 67.1664 24.6248L68.4382 27.2447L69.6156 24.6175C69.6157 24.5492 69.6016 24.4815 69.574 24.4189C69.5465 24.3564 69.5062 24.3002 69.4557 24.2542C69.3358 24.1124 69.2395 24.0416 69.1686 24.0416H68.8289V23.6437H71Z" fill="#13121C"/>
</g>
</g>
<defs>
<clipPath id="clip0_824_35094">
<rect width="70.6445" height="40" fill="white" transform="translate(0.355469 0.620361)"/>
</clipPath>
<clipPath id="clip1_824_35094">
<rect width="70.6445" height="21.8022" fill="white" transform="translate(0.355469 9.71924)"/>
</clipPath>
</defs>
</svg>
