<svg width="44" height="41" viewBox="0 0 44 41" fill="none" xmlns="http://www.w3.org/2000/svg">
<g clip-path="url(#clip0_824_35095)">
<g opacity="0.7" clip-path="url(#clip1_824_35095)">
<path fill-rule="evenodd" clip-rule="evenodd" d="M18.6134 9.69919C19.982 8.30842 21.887 7.44718 23.9914 7.44718C26.7973 7.44718 29.2291 8.9688 30.5386 11.236C31.7009 10.7288 32.9599 10.467 34.2331 10.4676C39.2837 10.4676 43.3835 14.4999 43.3835 19.4756C43.3835 24.4514 39.2837 28.4837 34.2331 28.4837C33.6158 28.4837 33.014 28.4231 32.4248 28.3087C31.279 30.302 29.0888 31.6563 26.5947 31.6563C25.5792 31.6582 24.5768 31.4334 23.664 30.9989C22.5027 33.6618 19.7981 35.5334 16.6492 35.5334C13.36 35.5334 10.5697 33.5096 9.49409 30.6642C9.01536 30.7628 8.52739 30.8123 8.03812 30.8121C4.12541 30.8121 0.960938 27.6775 0.960938 23.8278C0.960938 21.241 2.38573 18.989 4.49953 17.7717C4.05109 16.7633 3.82026 15.6756 3.82143 14.5763C3.82143 10.1332 7.51591 6.54211 12.0678 6.54211C14.7334 6.54211 17.1184 7.78224 18.6149 9.7071" fill="#13121C"/>
<path fill-rule="evenodd" clip-rule="evenodd" d="M7.1405 21.5681C7.11384 21.6359 7.15001 21.6501 7.15858 21.6621C7.23824 21.7184 7.31914 21.7592 7.40021 21.805C7.83357 22.0287 8.24198 22.0941 8.66911 22.0941C9.53895 22.0941 10.0799 21.6422 10.0799 20.9148V20.9005C10.0799 20.228 9.4688 19.983 8.89826 19.808L8.82359 19.7844C8.39179 19.6478 8.01922 19.5288 8.01922 19.2518V19.2377C8.01922 19.0003 8.23746 18.8253 8.57418 18.8253C8.9483 18.8253 9.39413 18.9469 9.6794 19.1007C9.6794 19.1007 9.76389 19.154 9.7946 19.0744C9.81128 19.0314 9.95672 18.6514 9.97231 18.6088C9.98883 18.5642 9.95984 18.5306 9.93006 18.5132C9.60271 18.3185 9.15064 18.1861 8.68298 18.1861L8.59616 18.1864C7.79958 18.1864 7.24307 18.6566 7.24307 19.3291V19.3436C7.24307 20.0527 7.85726 20.284 8.43092 20.4437L8.5232 20.4717C8.94097 20.5971 9.30263 20.7061 9.30263 20.9921V21.0064C9.30263 21.2697 9.06724 21.466 8.69 21.466C8.54331 21.466 8.07581 21.4635 7.56918 21.151C7.50792 21.1161 7.473 21.091 7.42577 21.0629C7.40083 21.0481 7.33847 21.0215 7.31135 21.1012L7.13988 21.5668M19.8757 21.5668C19.849 21.6347 19.8852 21.6489 19.8941 21.6609C19.9734 21.7172 20.0546 21.758 20.1357 21.8038C20.5691 22.0274 20.9775 22.0929 21.4046 22.0929C22.2745 22.0929 22.8154 21.6409 22.8154 20.9136V20.8993C22.8154 20.2267 22.2059 19.9818 21.6338 19.8068L21.5591 19.7832C21.1273 19.6465 20.7547 19.5276 20.7547 19.2506V19.2365C20.7547 18.9991 20.973 18.8241 21.3097 18.8241C21.6838 18.8241 22.1281 18.9457 22.4149 19.0995C22.4149 19.0995 22.4994 19.1528 22.5303 19.0732C22.5468 19.0301 22.6924 18.6502 22.7064 18.6076C22.7231 18.563 22.6939 18.5294 22.6643 18.512C22.337 18.3173 21.8849 18.1849 21.4172 18.1849L21.3303 18.1852C20.5337 18.1852 19.9772 18.6554 19.9772 19.3279V19.3424C19.9772 20.0515 20.5914 20.2827 21.165 20.4425L21.2571 20.4705C21.6765 20.5959 22.0366 20.7048 22.0366 20.9909V21.0052C22.0366 21.2685 21.8012 21.4647 21.4239 21.4647C21.2769 21.4647 20.8082 21.4623 20.3031 21.1498C20.2419 21.1149 20.206 21.0909 20.1596 21.0617C20.1438 21.0519 20.0704 21.0239 20.0453 21.1L19.8738 21.5656M28.5722 20.1414C28.5722 20.5522 28.4936 20.8763 28.3399 21.1061C28.1866 21.3328 27.9549 21.4439 27.6322 21.4439C27.3095 21.4439 27.0788 21.3337 26.9276 21.1076C26.7753 20.8794 26.6985 20.5537 26.6985 20.1429C26.6985 19.7321 26.7758 19.4095 26.9276 19.1828C27.0785 18.9576 27.308 18.8495 27.6322 18.8495C27.9565 18.8495 28.1872 18.9586 28.3399 19.1828C28.4946 19.4095 28.5722 19.7321 28.5722 20.1429M29.2986 19.3806C29.2271 19.1447 29.1163 18.9378 28.9682 18.7643C28.8199 18.5908 28.633 18.4509 28.4101 18.3504C28.1887 18.2492 27.9268 18.1983 27.6307 18.1983C27.3345 18.1983 27.0742 18.2495 26.8512 18.3504C26.6299 18.4515 26.4413 18.5908 26.2932 18.7643C26.1454 18.9378 26.0344 19.1447 25.9627 19.3806C25.8918 19.6149 25.8558 19.8705 25.8558 20.1429C25.8558 20.4153 25.8918 20.6709 25.9627 20.9052C26.0339 21.1411 26.1451 21.348 26.2932 21.5215C26.4414 21.695 26.6299 21.8334 26.8512 21.9323C27.0742 22.0309 27.336 22.0812 27.6307 22.0812C27.9253 22.0812 28.1872 22.0309 28.4085 21.9323C28.6299 21.8337 28.8185 21.695 28.9666 21.5215C29.1145 21.348 29.2254 21.1411 29.2971 20.9052C29.3678 20.6709 29.4039 20.4153 29.4039 20.1429C29.4039 19.8721 29.3678 19.6149 29.2971 19.3806M35.2675 21.3283C35.2436 21.2593 35.1747 21.2853 35.1747 21.2853C35.0692 21.3248 34.9565 21.3613 34.8365 21.3795C34.7155 21.3981 34.5808 21.4074 34.4389 21.4074C34.0882 21.4074 33.8076 21.3053 33.6081 21.1031C33.407 20.9007 33.2948 20.575 33.2963 20.1338C33.2974 19.7321 33.3969 19.4308 33.5753 19.1995C33.7515 18.9713 34.0227 18.8526 34.3813 18.8526C34.6806 18.8526 34.9097 18.8865 35.1498 18.9598C35.1498 18.9598 35.2067 18.984 35.234 18.9108C35.2977 18.7389 35.3448 18.6156 35.4132 18.427C35.4326 18.3729 35.3852 18.3501 35.3679 18.3436C35.2737 18.3077 35.0514 18.2488 34.8831 18.224C34.7256 18.2005 34.5432 18.1884 34.3375 18.1884C34.0319 18.1884 33.7607 18.2393 33.5284 18.3404C33.2962 18.4413 33.0997 18.5808 32.9439 18.7543C32.788 18.9277 32.6695 19.1347 32.59 19.3705C32.5113 19.6049 32.4715 19.862 32.4715 20.1344C32.4715 20.7217 32.6336 21.198 32.9548 21.5465C33.2759 21.8964 33.7591 22.0729 34.3889 22.0729C34.7615 22.0729 35.1434 21.9994 35.4178 21.8934C35.4178 21.8934 35.4701 21.8687 35.4474 21.8091L35.2681 21.3283M36.5386 19.7458C36.5733 19.5175 36.6374 19.3273 36.7381 19.1797C36.8888 18.9545 37.1185 18.8313 37.4411 18.8313C37.7638 18.8313 37.9774 18.9551 38.1302 19.1797C38.2315 19.3281 38.2758 19.5251 38.2923 19.7458L36.5308 19.7455L36.5386 19.7458ZM38.986 19.2436C38.9241 19.0169 38.7708 18.7871 38.6711 18.6821C38.5121 18.5163 38.3577 18.3991 38.2034 18.3352C37.9806 18.2427 37.7409 18.1953 37.4988 18.1957C37.1917 18.1957 36.9127 18.2463 36.6867 18.3494C36.4606 18.4531 36.2704 18.5943 36.1208 18.7709C35.9713 18.9474 35.8589 19.1558 35.7872 19.3947C35.7155 19.6306 35.6793 19.8892 35.6793 20.1601C35.6793 20.437 35.7169 20.6942 35.7908 20.927C35.8655 21.1613 35.9856 21.3667 36.1478 21.5372C36.3099 21.7091 36.5172 21.843 36.7666 21.9374C37.0145 22.0309 37.3153 22.0795 37.6598 22.0784C38.3707 22.0761 38.7448 21.9217 38.8976 21.838C38.9249 21.8231 38.9506 21.7974 38.9185 21.7233L38.7579 21.2835C38.7333 21.2179 38.6653 21.2417 38.6653 21.2417C38.4892 21.3059 38.2397 21.4212 37.6552 21.4197C37.2733 21.4191 36.9911 21.3091 36.8134 21.1367C36.6326 20.9602 36.5422 20.703 36.5281 20.3378L38.9911 20.3397C38.9911 20.3397 39.056 20.339 39.0627 20.2773C39.0653 20.2517 39.147 19.7843 38.9892 19.2441L38.986 19.2436ZM16.8503 19.7458C16.885 19.5175 16.9493 19.3273 17.0498 19.1797C17.2007 18.9545 17.4302 18.8313 17.7528 18.8313C18.0755 18.8313 18.2891 18.9551 18.4419 19.1797C18.543 19.3281 18.5873 19.5251 18.604 19.7458L16.8425 19.7455L16.8503 19.7458ZM19.2977 19.2436C19.2359 19.0169 19.0825 18.7871 18.9828 18.6821C18.8238 18.5163 18.6695 18.3991 18.5151 18.3352C18.2923 18.2427 18.0526 18.1953 17.8105 18.1957C17.5034 18.1957 17.2244 18.2463 16.9984 18.3494C16.7723 18.4531 16.5822 18.5943 16.4325 18.7709C16.2833 18.9474 16.1706 19.1558 16.0989 19.3947C16.0274 19.6306 15.9913 19.8892 15.9913 20.1601C15.9913 20.437 16.0286 20.6942 16.103 20.927C16.1775 21.1613 16.2978 21.3667 16.4584 21.5372C16.6205 21.7091 16.8278 21.843 17.0772 21.9374C17.3251 22.0309 17.6244 22.0795 17.9705 22.0784C18.6813 22.0761 19.0554 21.9217 19.2082 21.838C19.2353 21.8231 19.2612 21.7974 19.2289 21.7233L19.0684 21.2835C19.0436 21.2179 18.9756 21.2417 18.9756 21.2417C18.7995 21.3059 18.55 21.4212 17.9655 21.4197C17.5851 21.4191 17.3014 21.3091 17.1237 21.1367C16.9429 20.9602 16.8525 20.703 16.8384 20.3378L19.3014 20.3397C19.3014 20.3397 19.3663 20.339 19.373 20.2773C19.3756 20.2517 19.4573 19.7843 19.2994 19.2441L19.2977 19.2436ZM11.5346 21.313C11.4381 21.2379 11.4247 21.2195 11.3927 21.1706C11.3439 21.0971 11.319 20.9926 11.319 20.8587C11.319 20.6487 11.3907 20.4965 11.5388 20.3946C11.5372 20.3949 11.7508 20.215 12.2528 20.2211C12.4762 20.225 12.6991 20.2436 12.9199 20.2767V21.3677H12.9203C12.9203 21.3677 12.6085 21.4332 12.2562 21.4539C11.7558 21.4833 11.5344 21.3133 11.536 21.3138L11.5346 21.313ZM12.5135 19.624C12.4138 19.6169 12.2844 19.6134 12.1301 19.6134C11.9196 19.6134 11.7154 19.6389 11.5252 19.6892C11.3335 19.7397 11.1605 19.8179 11.0124 19.922C10.8639 20.0254 10.7417 20.1607 10.6554 20.3176C10.5683 20.4758 10.5238 20.6615 10.5238 20.8715C10.5238 21.0845 10.5617 21.2686 10.6365 21.4192C10.7099 21.5687 10.8202 21.6979 10.9577 21.7951C11.0944 21.8922 11.2632 21.964 11.4581 22.0066C11.6513 22.0497 11.8696 22.0714 12.1097 22.0714C12.3622 22.0714 12.6132 22.0507 12.8563 22.0107C13.0635 21.9758 13.2698 21.9367 13.4752 21.8932C13.5572 21.8748 13.6482 21.8506 13.6482 21.8506C13.709 21.8356 13.7044 21.7721 13.7044 21.7721L13.703 19.581C13.703 19.1001 13.5714 18.7426 13.3117 18.5219C13.0529 18.3013 12.6741 18.1902 12.1831 18.1902C11.9991 18.1902 11.7014 18.2145 11.5237 18.2494C11.5237 18.2494 10.9874 18.351 10.7661 18.5202C10.7661 18.5202 10.7174 18.5495 10.7439 18.6156L10.9185 19.0721C10.9402 19.1313 10.9993 19.1111 10.9993 19.1111C10.9993 19.1111 11.0178 19.1039 11.0397 19.0913C11.512 18.8402 12.1106 18.8478 12.1106 18.8478C12.3756 18.8478 12.5814 18.9003 12.7185 19.0031C12.8528 19.1036 12.9212 19.2556 12.9212 19.5752V19.6767C12.7107 19.6469 12.5159 19.6297 12.5159 19.6297L12.5135 19.624ZM32.311 18.3869C32.3145 18.3789 32.3164 18.3703 32.3164 18.3615C32.3165 18.3528 32.3147 18.3441 32.3113 18.3361C32.3078 18.328 32.3027 18.3207 32.2963 18.3146C32.2899 18.3085 32.2824 18.3037 32.274 18.3005C32.2321 18.285 32.023 18.2419 31.8625 18.2322C31.5538 18.2133 31.3824 18.2642 31.228 18.3317C31.0756 18.3988 30.9069 18.5067 30.8134 18.6315L30.8131 18.3393C30.8131 18.2991 30.7839 18.2667 30.7424 18.2667H30.1127C30.0718 18.2667 30.0422 18.2991 30.0422 18.3393V21.9151C30.0422 21.9345 30.0501 21.953 30.0641 21.9666C30.0781 21.9803 30.0971 21.988 30.1169 21.988H30.7622C30.782 21.988 30.801 21.9803 30.8149 21.9666C30.8289 21.953 30.8368 21.9344 30.8368 21.9151V20.1196C30.8368 19.8792 30.8639 19.6403 30.918 19.4897C30.9713 19.3407 31.0438 19.2219 31.1331 19.1367C31.2183 19.0544 31.3226 18.9933 31.4371 18.9586C31.5445 18.9285 31.6558 18.9133 31.7675 18.9133C31.8962 18.9133 32.0372 18.9455 32.0372 18.9455C32.0846 18.9507 32.111 18.9224 32.127 18.8807C32.1693 18.771 32.2891 18.4425 32.3125 18.3771" fill="#FFFFFE"/>
<path fill-rule="evenodd" clip-rule="evenodd" d="M26.2829 16.7365C26.2031 16.7129 26.122 16.6941 26.0399 16.6802C25.9294 16.6622 25.8176 16.6537 25.7057 16.6549C25.2609 16.6549 24.9103 16.7775 24.6642 17.0198C24.4198 17.2602 24.2534 17.6265 24.17 18.1084L24.1399 18.271H23.5817C23.5817 18.271 23.5136 18.2683 23.4993 18.3409L23.4076 18.84C23.4012 18.8877 23.4223 18.9176 23.4877 18.9172H24.0311L23.4798 21.9214C23.4366 22.1633 23.3872 22.3624 23.3325 22.5132C23.2785 22.662 23.2258 22.7735 23.161 22.8545C23.0982 22.9328 23.0386 22.9905 22.9359 23.0241C22.8511 23.052 22.7535 23.0647 22.6466 23.0647C22.587 23.0647 22.5078 23.055 22.4494 23.0436C22.3909 23.0323 22.3605 23.0196 22.3167 23.0016C22.3167 23.0016 22.253 22.9779 22.2279 23.0402C22.2074 23.0912 22.0626 23.48 22.0455 23.5281C22.028 23.5756 22.0525 23.613 22.0834 23.6238C22.1557 23.6491 22.2095 23.6652 22.308 23.6879C22.4449 23.7194 22.5602 23.7213 22.6682 23.7213C22.8946 23.7213 23.1008 23.6903 23.2718 23.63C23.4439 23.5693 23.5937 23.4636 23.7262 23.3204C23.8695 23.1659 23.9596 23.0042 24.0458 22.7836C24.1311 22.5649 24.2037 22.2934 24.2618 21.9771L24.8159 18.9172H25.6258C25.6258 18.9172 25.6941 18.9197 25.7083 18.8474L25.8 18.3483C25.8064 18.3005 25.7855 18.2707 25.7197 18.271H24.9336C24.9375 18.2537 24.9732 17.9837 25.0634 17.7296C25.1019 17.6211 25.1744 17.5336 25.2358 17.4735C25.2932 17.4163 25.3638 17.3734 25.4417 17.3485C25.5272 17.3227 25.6162 17.3101 25.7057 17.3113C25.7797 17.3113 25.8523 17.32 25.9077 17.3313C25.9839 17.3471 26.0135 17.3555 26.0335 17.3612C26.1136 17.3851 26.1244 17.362 26.1401 17.3241L26.3281 16.8201C26.3474 16.766 26.3004 16.7431 26.2829 16.7365ZM15.297 21.9278C15.297 21.968 15.2677 22.0007 15.2266 22.0007H14.5745C14.5332 22.0007 14.5039 21.968 14.5039 21.9278V16.8048C14.5039 16.7648 14.5332 16.7323 14.5745 16.7323H15.2266C15.2677 16.7323 15.297 16.7648 15.297 16.8048V21.9278Z" fill="#FFFFFE"/>
</g>
</g>
<defs>
<clipPath id="clip0_824_35095">
<rect width="42.5566" height="40" fill="white" transform="translate(1 0.98999)"/>
</clipPath>
<clipPath id="clip1_824_35095">
<rect width="42.5566" height="29.0631" fill="white" transform="translate(1 6.45844)"/>
</clipPath>
</defs>
</svg>
