<svg width="52" height="41" viewBox="0 0 52 41" fill="none" xmlns="http://www.w3.org/2000/svg">
<g clip-path="url(#clip0_824_35096)">
<g opacity="0.7" clip-path="url(#clip1_824_35096)">
<path fill-rule="evenodd" clip-rule="evenodd" d="M50.0018 18.3907L47.9781 16.3671H44.2186V13.7643H41.0373V25.6197H44.2186V19.5471H46.8206V25.6197H50.0018V18.3907ZM39.8814 16.3671H34.9658L32.9416 18.3907V23.5952L34.9658 25.6197H39.8814V22.4394H36.1219V19.5471H39.8814V16.3671ZM31.7849 16.3671H29.183V13.7643H26.0017V23.5952L28.0259 25.6197H31.7849V22.4394H29.183V19.5471H31.7849V16.3671ZM24.8451 13.7643H21.6647V15.2106H24.8451V13.7643ZM24.8451 16.3671H21.6647V25.6196H24.8451V16.3671ZM20.5081 16.3671H17.3274V22.4394H16.1711V16.3671H12.9903V22.4394H11.8341V16.3671H8.65284V25.6197H18.4843L20.5081 23.5952V16.3671ZM7.49621 16.3671H4.89408V13.7643H1.71341V23.5952L3.73746 25.6197H7.49621V22.4394H4.89408V19.5471H7.49621V16.3671ZM51.1576 17.8123V26.4867L46.8206 29.3785H43.9292V27.9322L41.9052 29.3785H39.3032V27.9322L37.8578 29.3785H33.2312L31.7849 27.9322L31.4955 29.3785H27.448L25.7927 27.9322L25.7 29.3785H21.1123L20.95 27.9322L19.7081 29.3785H12.7008L11.2548 28.8001V29.3785H7.49621L3.15878 26.7755L0.556641 24.1744V12.608H6.05085L8.65284 15.2106H20.5081V12.608H30.3391V15.2106H32.9416V16.656L34.3878 15.2106H37.2787L39.8814 12.608H45.3752V15.2106H48.556L51.1576 17.8123Z" fill="#13121C"/>
</g>
</g>
<defs>
<clipPath id="clip0_824_35096">
<rect width="51" height="40" fill="white" transform="translate(0.556641 0.828369)"/>
</clipPath>
<clipPath id="clip1_824_35096">
<rect width="51" height="17.3864" fill="white" transform="translate(0.556641 12.1352)"/>
</clipPath>
</defs>
</svg>
