<svg width="16" height="16" viewBox="0 0 16 16" fill="none" xmlns="http://www.w3.org/2000/svg">
<mask id="path-2-outside-1_824_35836" maskUnits="userSpaceOnUse" x="5.86529" y="4.21727" width="9.70261" height="9.95379" fill="black">
<rect fill="white" x="5.86529" y="4.21727" width="9.70261" height="9.95379"/>
<path fill-rule="evenodd" clip-rule="evenodd" d="M7.53125 5.32324C7.53125 5.32324 8.14406 9.82698 9.02596 10.8958C9.75713 11.7819 10.943 12.0616 11.9094 11.6534L13.1073 13.1051L13.9333 12.4272L12.7712 11.0189C13.508 10.1468 13.5138 8.81264 12.7268 7.85878C11.8449 6.78999 7.53125 5.32324 7.53125 5.32324Z"/>
</mask>
<path d="M9.02596 10.8958L9.63506 10.3931L9.63506 10.3931L9.02596 10.8958ZM7.53125 5.32324L7.76989 4.56422C7.50916 4.47556 7.22476 4.52602 7.01608 4.69795C6.80741 4.86988 6.70347 5.13938 6.7406 5.41225L7.53125 5.32324ZM11.9094 11.6534L12.5185 11.1507C12.2893 10.8729 11.9087 10.7759 11.5846 10.9129L11.9094 11.6534ZM13.1073 13.1051L12.4982 13.6078C12.7824 13.9522 13.2848 14.0075 13.6213 13.7314L13.1073 13.1051ZM13.9333 12.4272L14.4473 13.0535C14.6095 12.9204 14.7107 12.7266 14.7285 12.5148C14.7464 12.303 14.6794 12.0906 14.5424 11.9246L13.9333 12.4272ZM12.7712 11.0189L12.1575 10.491C11.91 10.7839 11.912 11.2183 12.1621 11.5215L12.7712 11.0189ZM12.7268 7.85878L13.3359 7.35613L13.3359 7.35613L12.7268 7.85878ZM9.63506 10.3931C9.52636 10.2614 9.361 9.91861 9.18023 9.3483C9.01053 8.81292 8.85775 8.17963 8.72872 7.5627C8.60027 6.94858 8.4983 6.36499 8.42835 5.93399C8.39344 5.71887 8.36665 5.54266 8.34867 5.42077C8.33968 5.35984 8.33289 5.31254 8.3284 5.28079C8.32616 5.26492 8.32449 5.25295 8.3234 5.2451C8.32286 5.24118 8.32246 5.2383 8.32221 5.23647C8.32208 5.23556 8.32199 5.23492 8.32194 5.23454C8.32192 5.23435 8.3219 5.23423 8.32189 5.23418C8.32189 5.23416 8.32189 5.23417 8.32189 5.23415C8.32189 5.23418 8.3219 5.23423 7.53125 5.32324C6.7406 5.41225 6.74061 5.41233 6.74062 5.41243C6.74063 5.41249 6.74065 5.4126 6.74066 5.41271C6.74069 5.41294 6.74073 5.41323 6.74078 5.41358C6.74088 5.4143 6.74102 5.41529 6.74119 5.41655C6.74153 5.41906 6.74203 5.42265 6.74267 5.42728C6.74396 5.43655 6.74583 5.44999 6.74829 5.46737C6.75321 5.50212 6.76045 5.55262 6.76994 5.61693C6.78891 5.74551 6.81689 5.92951 6.85321 6.15331C6.92573 6.60017 7.03208 7.20931 7.16707 7.85472C7.30148 8.49732 7.46725 9.19036 7.66049 9.80003C7.84266 10.3748 8.08461 10.9958 8.41685 11.3984L9.63506 10.3931ZM11.5846 10.9129C10.9426 11.1841 10.1372 11.0016 9.63506 10.3931L8.41685 11.3984C9.37711 12.5622 10.9435 12.9391 12.2342 12.3939L11.5846 10.9129ZM13.7164 12.6025L12.5185 11.1507L11.3003 12.156L12.4982 13.6078L13.7164 12.6025ZM13.4193 11.801L12.5933 12.4789L13.6213 13.7314L14.4473 13.0535L13.4193 11.801ZM12.1621 11.5215L13.3242 12.9299L14.5424 11.9246L13.3803 10.5162L12.1621 11.5215ZM12.1176 8.36143C12.6582 9.01659 12.6432 9.91611 12.1575 10.491L13.385 11.5468C14.3729 10.3775 14.3694 8.60869 13.3359 7.35613L12.1176 8.36143ZM7.53125 5.32324C7.29261 6.08227 7.29256 6.08225 7.29254 6.08224C7.29255 6.08225 7.29254 6.08224 7.29256 6.08225C7.29261 6.08227 7.29273 6.08231 7.29291 6.08237C7.29327 6.08249 7.29389 6.0827 7.29476 6.083C7.29651 6.0836 7.29928 6.08454 7.30303 6.08583C7.31055 6.08841 7.32201 6.09235 7.3372 6.0976C7.36758 6.10811 7.41283 6.12386 7.47106 6.14439C7.58756 6.18547 7.75582 6.24562 7.9608 6.3212C8.37148 6.47265 8.92618 6.68482 9.50584 6.92879C10.0881 7.17387 10.682 7.44538 11.1764 7.71462C11.703 8.00143 12.0088 8.22949 12.1176 8.36143L13.3359 7.35613C13.0038 6.95367 12.4397 6.59759 11.9095 6.30879C11.3469 6.00242 10.6971 5.70684 10.0907 5.45164C9.48177 5.19532 8.90294 4.97401 8.47726 4.81704C8.26406 4.73842 8.08843 4.67563 7.96558 4.63231C7.90414 4.61065 7.85585 4.59384 7.82262 4.58235C7.806 4.5766 7.79313 4.57217 7.78427 4.56913C7.77984 4.56761 7.7764 4.56644 7.774 4.56562C7.77279 4.56521 7.77185 4.56488 7.77116 4.56465C7.77082 4.56453 7.77054 4.56444 7.77033 4.56437C7.77023 4.56433 7.77012 4.56429 7.77006 4.56428C7.76997 4.56425 7.76989 4.56422 7.53125 5.32324Z" fill="#13121C" mask="url(#path-2-outside-1_824_35836)"/>
<circle r="1.0653" transform="matrix(-0.766766 0.630843 -0.640845 -0.776804 10.6074 9.05548)" fill="#13121C" stroke="#13121C" stroke-width="0.473866" stroke-linejoin="round"/>
<path d="M9.95756 8.2461L7.63672 5.46851" stroke="#13121C" stroke-width="0.799953" stroke-linecap="round" stroke-linejoin="round"/>
<path d="M0.73245 2.85829C1.76226 2.35004 4.66757 1.57381 5.25881 2.60951C5.85005 3.64521 2.47628 5.43299 3.58518 6.1732C4.69408 6.91342 7.03179 5.71672 7.27219 5.13713" stroke="#13121C" stroke-width="0.799953" stroke-linecap="round"/>
</svg>
