<svg width="16" height="16" viewBox="0 0 16 16" fill="none" xmlns="http://www.w3.org/2000/svg">
<path d="M6.66836 3.13329C5.45345 3.13329 4.46849 4.11824 4.46849 5.33316C4.46849 6.54816 5.45345 7.53303 6.66836 7.53303C7.88336 7.53303 8.86823 6.54816 8.86823 5.33316C8.86823 4.11824 7.88336 3.13329 6.66836 3.13329Z" fill="#13121C" stroke="#13121C" stroke-width="0.133325"/>
<path d="M10.8078 7.11549C10.8078 6.60882 11.2392 6.19278 11.7781 6.19278C12.3169 6.19278 12.7484 6.60883 12.7484 7.11549C12.7484 7.62216 12.3169 8.03821 11.7781 8.03821C11.2392 8.03821 10.8078 7.62216 10.8078 7.11549ZM11.7781 5.56481C10.8852 5.56481 10.156 6.25615 10.156 7.11549C10.156 7.97483 10.8852 8.66618 11.7781 8.66618C12.671 8.66618 13.4001 7.97483 13.4001 7.11549C13.4001 6.25616 12.671 5.56481 11.7781 5.56481Z" fill="#13121C" stroke="#13121C" stroke-width="0.133325"/>
<path d="M10.9355 9.01647C12.5355 8.21652 14.9353 9.58953 14.9353 12.256" stroke="#13121C" stroke-width="0.799953" stroke-linecap="round"/>
<path d="M10.6675 11.683V12.3375C10.6675 12.4178 10.6024 12.4829 10.522 12.4829H2.81341C2.73309 12.4829 2.66797 12.4178 2.66797 12.3375V11.683C2.66797 9.47398 4.45872 7.68323 6.66773 7.68323C8.87674 7.68323 10.6675 9.47398 10.6675 11.683Z" fill="#13121C" stroke="#13121C" stroke-width="0.799953" stroke-linecap="round"/>
</svg>
