<svg width="16" height="16" viewBox="0 0 16 16" fill="none" xmlns="http://www.w3.org/2000/svg">
<g clip-path="url(#clip0_824_35743)">
<path d="M2.14545 10.5595C2.14479 10.5598 2.14412 10.5601 2.14323 10.5603C2.14256 10.5605 2.142 10.5608 2.14145 10.5608C2.13933 10.5608 2.13766 10.5602 2.13655 10.5591C2.13532 10.558 2.13477 10.5565 2.13477 10.5545C2.13477 10.5526 2.13532 10.551 2.13655 10.5499C2.13766 10.5488 2.13933 10.5482 2.14145 10.5482C2.142 10.5482 2.14256 10.5484 2.14323 10.5486C2.14412 10.5486 2.14479 10.5488 2.14545 10.5491V10.5516C2.14479 10.5514 2.14423 10.551 2.14367 10.5507C2.14301 10.5505 2.14245 10.5503 2.14189 10.5503C2.14067 10.5503 2.13978 10.5507 2.13922 10.5516C2.13855 10.5522 2.13833 10.5531 2.13833 10.5545C2.13833 10.5556 2.13855 10.5566 2.13922 10.5574C2.13978 10.558 2.14067 10.5582 2.14189 10.5582H2.14367C2.14423 10.558 2.14479 10.5577 2.14545 10.5574V10.5595Z" fill="#13121C"/>
<path d="M2.15238 10.5537C2.15201 10.5535 2.15164 10.5532 2.1514 10.5532H2.15091C2.14993 10.5532 2.14907 10.5536 2.14845 10.5542C2.14809 10.5546 2.14796 10.5552 2.14796 10.5562V10.5611H2.14453V10.5508H2.14796V10.5523C2.14821 10.5516 2.14858 10.5512 2.14894 10.5508C2.14956 10.5505 2.15042 10.5503 2.1514 10.5503H2.15189H2.15238V10.5537Z" fill="#13121C"/>
<path d="M2.16182 10.556V10.5576H2.15351C2.15377 10.5583 2.15416 10.5589 2.15455 10.5591C2.15481 10.5595 2.15559 10.5596 2.15663 10.5596H2.1587C2.15974 10.5594 2.16078 10.5589 2.16182 10.5581V10.5612C2.16078 10.5612 2.15974 10.5615 2.1587 10.5617C2.15792 10.562 2.15728 10.5622 2.15663 10.5622C2.15455 10.5622 2.15299 10.5617 2.15195 10.5607C2.15091 10.5596 2.15039 10.5583 2.15039 10.5565C2.15039 10.5544 2.15091 10.5529 2.15195 10.5519C2.15299 10.5508 2.15429 10.5503 2.15611 10.5503C2.1578 10.5503 2.15922 10.5508 2.16026 10.5519C2.1613 10.5529 2.16182 10.5543 2.16182 10.556ZM2.1587 10.555C2.1587 10.5543 2.15831 10.5538 2.15767 10.5534C2.15728 10.5532 2.15676 10.5529 2.15611 10.5529C2.15533 10.5529 2.15481 10.5532 2.15455 10.5534C2.15416 10.5538 2.15377 10.5543 2.15351 10.555H2.1587Z" fill="#13121C"/>
<path d="M2.16783 10.5564C2.16705 10.5564 2.1664 10.5567 2.16575 10.5569C2.16536 10.5573 2.16523 10.5577 2.16523 10.558C2.16523 10.5587 2.16536 10.5593 2.16575 10.5595H2.16679C2.16783 10.5595 2.16847 10.5594 2.16886 10.559C2.16912 10.5584 2.16938 10.5578 2.16938 10.5574V10.5564H2.16783ZM2.17302 10.5554V10.5616H2.16938V10.56C2.16899 10.5608 2.16847 10.5613 2.16783 10.5616C2.16705 10.5619 2.1664 10.5621 2.16575 10.5621C2.16471 10.5621 2.1638 10.5617 2.16315 10.5611C2.16237 10.5604 2.16211 10.5594 2.16211 10.558C2.16211 10.5569 2.16237 10.5563 2.16315 10.5559C2.16419 10.5552 2.16549 10.5548 2.16731 10.5548H2.16938V10.5543C2.16938 10.5537 2.16912 10.5533 2.16886 10.5533C2.16847 10.553 2.16783 10.5528 2.16679 10.5528C2.16601 10.5528 2.16536 10.553 2.16471 10.5533H2.16315V10.5507H2.16471C2.16575 10.5504 2.16653 10.5502 2.16731 10.5502C2.16938 10.5502 2.17068 10.5507 2.17146 10.5517C2.1725 10.5525 2.17302 10.5537 2.17302 10.5554Z" fill="#13121C"/>
<path d="M2.17667 10.5487V10.5515H2.18003V10.5538H2.17667V10.558V10.5589H2.17763H2.17955V10.5612H2.17667C2.17535 10.5612 2.17439 10.561 2.17379 10.5603C2.17343 10.5597 2.17331 10.5589 2.17331 10.558V10.5538H2.17188V10.5515H2.17331V10.5487H2.17667Z" fill="#13121C"/>
<path d="M2.18526 10.556V10.5576H2.17695C2.17721 10.5583 2.1776 10.5589 2.17798 10.5591C2.17824 10.5595 2.17902 10.5596 2.18006 10.5596H2.18214C2.18318 10.5594 2.18422 10.5589 2.18526 10.5581V10.5612C2.18422 10.5612 2.18318 10.5615 2.18214 10.5617C2.18136 10.562 2.18071 10.5622 2.18006 10.5622C2.17798 10.5622 2.17643 10.5617 2.17539 10.5607C2.17435 10.5596 2.17383 10.5583 2.17383 10.5565C2.17383 10.5544 2.17435 10.5529 2.17539 10.5519C2.17643 10.5508 2.17773 10.5503 2.17954 10.5503C2.18123 10.5503 2.18266 10.5508 2.1837 10.5519C2.18474 10.5529 2.18526 10.5543 2.18526 10.556ZM2.18214 10.555C2.18214 10.5543 2.18175 10.5538 2.1811 10.5534C2.18071 10.5532 2.18019 10.5529 2.17954 10.5529C2.17876 10.5529 2.17824 10.5532 2.17798 10.5534C2.1776 10.5538 2.17721 10.5543 2.17695 10.555H2.18214Z" fill="#13121C"/>
<path d="M2.19267 10.5529V10.5479H2.19535V10.5604H2.19267V10.5591C2.19201 10.5598 2.19145 10.5602 2.19089 10.5604C2.19056 10.5606 2.19011 10.5608 2.18956 10.5608C2.18833 10.5608 2.18733 10.5604 2.18644 10.5595C2.18577 10.5587 2.18555 10.5577 2.18555 10.5562C2.18555 10.5545 2.18577 10.5533 2.18644 10.5524C2.18733 10.5516 2.18833 10.5512 2.18956 10.5512C2.19011 10.5512 2.19056 10.5514 2.19089 10.5516C2.19145 10.5519 2.19201 10.5523 2.19267 10.5529ZM2.19045 10.5587C2.191 10.5587 2.19145 10.5586 2.19178 10.5583C2.19234 10.5578 2.19267 10.557 2.19267 10.5562C2.19267 10.5554 2.19234 10.5547 2.19178 10.5541C2.19145 10.5536 2.191 10.5533 2.19045 10.5533C2.18978 10.5533 2.18922 10.5536 2.18866 10.5541C2.18833 10.5547 2.18822 10.5554 2.18822 10.5562C2.18822 10.557 2.18833 10.5578 2.18866 10.5583C2.18922 10.5586 2.18978 10.5587 2.19045 10.5587Z" fill="#13121C"/>
<path d="M2.20607 10.5587C2.20696 10.5587 2.20752 10.5586 2.20785 10.5583C2.20808 10.5578 2.2083 10.557 2.2083 10.5562C2.2083 10.5554 2.20808 10.5547 2.20785 10.5541C2.20752 10.5536 2.20696 10.5533 2.20607 10.5533C2.2054 10.5533 2.20496 10.5536 2.20474 10.5541C2.2044 10.5547 2.20429 10.5554 2.20429 10.5562C2.20429 10.5568 2.2044 10.5574 2.20474 10.5579C2.20496 10.5585 2.2054 10.5587 2.20607 10.5587ZM2.20429 10.5529C2.20451 10.5523 2.20496 10.5519 2.20563 10.5516C2.20618 10.5514 2.20674 10.5512 2.20741 10.5512C2.20852 10.5512 2.20941 10.5516 2.21008 10.5524C2.21097 10.5533 2.21142 10.5545 2.21142 10.5562C2.21142 10.5577 2.21097 10.5587 2.21008 10.5595C2.20941 10.5604 2.20852 10.5608 2.20741 10.5608C2.20674 10.5608 2.20618 10.5606 2.20563 10.5604C2.20496 10.5602 2.20451 10.5598 2.20429 10.5591V10.5604H2.20117V10.5479H2.20429V10.5529Z" fill="#13121C"/>
<path d="M2.21094 10.5507H2.21361L2.21628 10.5565L2.21851 10.5507H2.22163L2.21762 10.5603C2.21695 10.5611 2.21639 10.5616 2.21584 10.5619C2.2155 10.5625 2.21495 10.5628 2.21406 10.5628H2.21227V10.5611H2.21316C2.21372 10.5611 2.21406 10.5609 2.21406 10.5607C2.21428 10.5607 2.21461 10.5604 2.21495 10.5598L2.21094 10.5507Z" fill="#13121C"/>
<path d="M2.22784 10.5505V10.5584H2.22877C2.23027 10.5584 2.23131 10.5582 2.232 10.5576C2.23258 10.5567 2.23292 10.5557 2.23292 10.5545C2.23292 10.5534 2.23258 10.5525 2.232 10.5519C2.23131 10.551 2.23027 10.5505 2.22877 10.5505L2.22784 10.5505ZM2.22461 10.5483H2.22784C2.22992 10.5483 2.23154 10.5486 2.23246 10.5488C2.23339 10.5488 2.23408 10.5492 2.23477 10.5501C2.23535 10.5508 2.23581 10.5513 2.23616 10.5519C2.23639 10.5525 2.23662 10.5534 2.23662 10.5545C2.23662 10.5554 2.23639 10.5562 2.23616 10.5571C2.23581 10.5578 2.23535 10.5583 2.23477 10.5589C2.23408 10.5595 2.23339 10.56 2.23246 10.5602C2.23154 10.5605 2.22992 10.5606 2.22784 10.5606H2.22461V10.5483Z" fill="#13121C"/>
<path d="M2.24009 10.5567C2.23931 10.5567 2.23866 10.5569 2.23801 10.5572C2.23762 10.5576 2.23749 10.5579 2.23749 10.5582C2.23749 10.559 2.23762 10.5595 2.23801 10.5598H2.23905C2.24009 10.5598 2.24074 10.5596 2.24113 10.5592C2.24139 10.5586 2.24165 10.5581 2.24165 10.5577V10.5567H2.24009ZM2.24529 10.5556V10.5618H2.24165V10.5603C2.24126 10.5611 2.24074 10.5616 2.24009 10.5618C2.23931 10.5621 2.23866 10.5624 2.23801 10.5624C2.23697 10.5624 2.23606 10.562 2.23541 10.5613C2.23463 10.5607 2.23438 10.5596 2.23438 10.5582C2.23438 10.5572 2.23463 10.5565 2.23541 10.5561C2.23645 10.5555 2.23775 10.5551 2.23957 10.5551H2.24165V10.5546C2.24165 10.5539 2.24139 10.5535 2.24113 10.5535C2.24074 10.5533 2.24009 10.553 2.23905 10.553C2.23827 10.553 2.23762 10.5533 2.23697 10.5535H2.23541V10.5509H2.23697C2.23801 10.5507 2.23879 10.5504 2.23957 10.5504C2.24165 10.5504 2.24295 10.5509 2.24373 10.552C2.24477 10.5528 2.24529 10.5539 2.24529 10.5556Z" fill="#13121C"/>
<path d="M2.25185 10.5522C2.25209 10.552 2.25257 10.5516 2.2533 10.5513C2.2539 10.5508 2.2545 10.5504 2.25523 10.5504C2.2562 10.5504 2.25692 10.5509 2.25764 10.5518C2.25825 10.5524 2.25861 10.5533 2.25861 10.5545V10.5603H2.25523V10.5554V10.5549C2.25523 10.5543 2.25499 10.5539 2.25475 10.5536C2.25475 10.5533 2.2545 10.5531 2.25426 10.5531C2.25354 10.5531 2.25306 10.5534 2.25281 10.554C2.25245 10.5543 2.25233 10.5549 2.25233 10.5558V10.5603H2.24895V10.5553C2.24895 10.5545 2.24871 10.5539 2.24847 10.5536C2.24847 10.5533 2.2481 10.5531 2.2475 10.5531C2.24678 10.5531 2.24629 10.5534 2.24605 10.554C2.24569 10.5543 2.24557 10.5549 2.24557 10.5558V10.5603H2.24219V10.5509H2.24557V10.5522C2.24581 10.5516 2.24617 10.5512 2.24653 10.5509C2.24714 10.5506 2.24774 10.5504 2.24847 10.5504C2.24943 10.5504 2.25004 10.5508 2.2504 10.5513C2.251 10.5516 2.25149 10.552 2.25185 10.5522Z" fill="#13121C"/>
<path d="M2.25977 10.5512H2.26288V10.56H2.25977V10.5512ZM2.25977 10.5475H2.26288V10.55H2.25977V10.5475Z" fill="#13121C"/>
<path d="M2.27134 10.5564C2.27056 10.5564 2.26991 10.5567 2.26926 10.5569C2.26887 10.5573 2.26874 10.5577 2.26874 10.558C2.26874 10.5587 2.26887 10.5593 2.26926 10.5595H2.2703C2.27134 10.5595 2.27199 10.5594 2.27238 10.559C2.27264 10.5584 2.2729 10.5578 2.2729 10.5574V10.5564H2.27134ZM2.27654 10.5554V10.5616H2.2729V10.56C2.27251 10.5608 2.27199 10.5613 2.27134 10.5616C2.27056 10.5619 2.26991 10.5621 2.26926 10.5621C2.26822 10.5621 2.26731 10.5617 2.26666 10.5611C2.26588 10.5604 2.26562 10.5594 2.26562 10.558C2.26562 10.5569 2.26588 10.5563 2.26666 10.5559C2.2677 10.5552 2.269 10.5548 2.27082 10.5548H2.2729V10.5543C2.2729 10.5537 2.27264 10.5533 2.27238 10.5533C2.27199 10.553 2.27134 10.5528 2.2703 10.5528C2.26952 10.5528 2.26887 10.553 2.26822 10.5533H2.26666V10.5507H2.26822C2.26926 10.5504 2.27004 10.5502 2.27082 10.5502C2.2729 10.5502 2.2742 10.5507 2.27498 10.5517C2.27602 10.5525 2.27654 10.5537 2.27654 10.5554Z" fill="#13121C"/>
<path d="M2.28618 10.5548V10.5612H2.28275V10.5563V10.5548C2.28275 10.5546 2.2825 10.5542 2.28226 10.5538C2.28226 10.5536 2.28201 10.5534 2.28177 10.5534H2.28078C2.28042 10.5534 2.27993 10.5537 2.27931 10.5543C2.27895 10.5547 2.27882 10.5553 2.27882 10.5563V10.5612H2.27539V10.5509H2.27882V10.5524C2.27907 10.5518 2.27956 10.5513 2.28029 10.5509C2.28091 10.5507 2.28152 10.5504 2.28226 10.5504C2.28348 10.5504 2.28446 10.5509 2.2852 10.5519C2.28581 10.5526 2.28618 10.5536 2.28618 10.5548Z" fill="#13121C"/>
<path d="M2.28906 10.5485H2.2923V10.5529H2.29738V10.5485H2.30061V10.5608H2.29738V10.5555H2.2923V10.5608H2.28906V10.5485Z" fill="#13121C"/>
<path d="M2.31026 10.5561V10.5577H2.30195C2.30221 10.5585 2.3026 10.559 2.30298 10.5592C2.30324 10.5596 2.30402 10.5598 2.30506 10.5598H2.30714C2.30818 10.5595 2.30922 10.559 2.31026 10.5582V10.5613C2.30922 10.5613 2.30818 10.5616 2.30714 10.5618C2.30636 10.5621 2.30571 10.5624 2.30506 10.5624C2.30298 10.5624 2.30143 10.5618 2.30039 10.5608C2.29935 10.5598 2.29883 10.5585 2.29883 10.5567C2.29883 10.5546 2.29935 10.553 2.30039 10.552C2.30143 10.5509 2.30273 10.5504 2.30454 10.5504C2.30623 10.5504 2.30766 10.5509 2.3087 10.552C2.30974 10.553 2.31026 10.5544 2.31026 10.5561ZM2.30714 10.5551C2.30714 10.5544 2.30675 10.5539 2.3061 10.5535C2.30571 10.5533 2.30519 10.553 2.30454 10.553C2.30376 10.553 2.30324 10.5533 2.30298 10.5535C2.3026 10.5539 2.30221 10.5544 2.30195 10.5551H2.30714Z" fill="#13121C"/>
<path d="M2.30948 10.5487V10.5515H2.31284V10.5538H2.30948V10.558V10.5589H2.31044H2.31236V10.5612H2.30948C2.30816 10.5612 2.30721 10.561 2.30661 10.5603C2.30625 10.5597 2.30613 10.5589 2.30613 10.558V10.5538H2.30469V10.5515H2.30613V10.5487H2.30948Z" fill="#13121C"/>
<path d="M2.32411 10.5522C2.32436 10.552 2.32484 10.5516 2.32556 10.5513C2.32617 10.5508 2.32677 10.5504 2.3275 10.5504C2.32846 10.5504 2.32919 10.5509 2.32991 10.5518C2.33051 10.5524 2.33088 10.5533 2.33088 10.5545V10.5603H2.3275V10.5554V10.5549C2.3275 10.5543 2.32725 10.5539 2.32701 10.5536C2.32701 10.5533 2.32677 10.5531 2.32653 10.5531C2.3258 10.5531 2.32532 10.5534 2.32508 10.554C2.32472 10.5543 2.3246 10.5549 2.3246 10.5558V10.5603H2.32122V10.5553C2.32122 10.5545 2.32097 10.5539 2.32073 10.5536C2.32073 10.5533 2.32037 10.5531 2.31977 10.5531C2.31904 10.5531 2.31856 10.5534 2.31832 10.554C2.31796 10.5543 2.31783 10.5549 2.31783 10.5558V10.5603H2.31445V10.5509H2.31783V10.5522C2.31808 10.5516 2.31844 10.5512 2.3188 10.5509C2.3194 10.5506 2.32001 10.5504 2.32073 10.5504C2.3217 10.5504 2.3223 10.5508 2.32266 10.5513C2.32327 10.5516 2.32375 10.552 2.32411 10.5522Z" fill="#13121C"/>
<path d="M2.33189 10.5567C2.33111 10.5567 2.33046 10.5569 2.32981 10.5572C2.32942 10.5576 2.32929 10.5579 2.32929 10.5582C2.32929 10.559 2.32942 10.5595 2.32981 10.5598H2.33085C2.33189 10.5598 2.33254 10.5596 2.33293 10.5592C2.33319 10.5586 2.33345 10.5581 2.33345 10.5577V10.5567H2.33189ZM2.33708 10.5556V10.5618H2.33345V10.5603C2.33306 10.5611 2.33254 10.5616 2.33189 10.5618C2.33111 10.5621 2.33046 10.5624 2.32981 10.5624C2.32877 10.5624 2.32786 10.562 2.32721 10.5613C2.32643 10.5607 2.32617 10.5596 2.32617 10.5582C2.32617 10.5572 2.32643 10.5565 2.32721 10.5561C2.32825 10.5555 2.32955 10.5551 2.33137 10.5551H2.33345V10.5546C2.33345 10.5539 2.33319 10.5535 2.33293 10.5535C2.33254 10.5533 2.33189 10.553 2.33085 10.553C2.33007 10.553 2.32942 10.5533 2.32877 10.5535H2.32721V10.5509H2.32877C2.32981 10.5507 2.33059 10.5504 2.33137 10.5504C2.33345 10.5504 2.33475 10.5509 2.33552 10.552C2.33656 10.5528 2.33708 10.5539 2.33708 10.5556Z" fill="#13121C"/>
<path d="M2.34868 10.5548V10.5612H2.34525V10.5563V10.5548C2.34525 10.5546 2.345 10.5542 2.34476 10.5538C2.34476 10.5536 2.34451 10.5534 2.34427 10.5534H2.34328C2.34292 10.5534 2.34243 10.5537 2.34181 10.5543C2.34145 10.5547 2.34132 10.5553 2.34132 10.5563V10.5612H2.33789V10.5509H2.34132V10.5524C2.34157 10.5518 2.34206 10.5513 2.34279 10.5509C2.34341 10.5507 2.34402 10.5504 2.34476 10.5504C2.34598 10.5504 2.34696 10.5509 2.3477 10.5519C2.34831 10.5526 2.34868 10.5536 2.34868 10.5548Z" fill="#13121C"/>
<path d="M2.14189 10.5603V10.5624H2.14011C2.13978 10.5624 2.13944 10.5626 2.13922 10.5628V10.5636V10.5641H2.14189V10.5662H2.13922V10.5728H2.1361V10.5662H2.13477V10.5641H2.1361V10.5636C2.1361 10.5626 2.13632 10.5618 2.13699 10.5611C2.13755 10.5606 2.13844 10.5603 2.13966 10.5603H2.14189Z" fill="#13121C"/>
<path d="M2.14847 10.5667C2.1481 10.5664 2.14774 10.5662 2.14749 10.5662H2.147C2.14602 10.5662 2.14516 10.5665 2.14455 10.5672C2.14418 10.5675 2.14406 10.5681 2.14406 10.5691V10.574H2.14062V10.5637H2.14406V10.5652C2.1443 10.5646 2.14467 10.5641 2.14504 10.5637C2.14565 10.5635 2.14651 10.5632 2.14749 10.5632H2.14798H2.14847V10.5667Z" fill="#13121C"/>
<path d="M2.15415 10.5658C2.15337 10.5658 2.15272 10.5662 2.15207 10.5669C2.15169 10.5673 2.15156 10.5682 2.15156 10.5695C2.15156 10.5705 2.15169 10.5714 2.15207 10.5721C2.15272 10.5725 2.15337 10.5726 2.15415 10.5726C2.15519 10.5726 2.15584 10.5725 2.15623 10.5721C2.15649 10.5714 2.15675 10.5705 2.15675 10.5695C2.15675 10.5682 2.15649 10.5673 2.15623 10.5669C2.15584 10.5662 2.15519 10.5658 2.15415 10.5658ZM2.15415 10.5632C2.15623 10.5632 2.15779 10.5638 2.15883 10.5648C2.15987 10.5658 2.16039 10.5674 2.16039 10.5695C2.16039 10.5713 2.15987 10.5726 2.15883 10.5736C2.15779 10.5747 2.15623 10.5752 2.15415 10.5752C2.15233 10.5752 2.15104 10.5747 2.15 10.5736C2.14896 10.5726 2.14844 10.5713 2.14844 10.5695C2.14844 10.5674 2.14896 10.5658 2.15 10.5648C2.15104 10.5638 2.15233 10.5632 2.15415 10.5632Z" fill="#13121C"/>
<path d="M2.16591 10.5651C2.16615 10.5649 2.16664 10.5646 2.16736 10.5643C2.16796 10.5637 2.16857 10.5634 2.16929 10.5634C2.17026 10.5634 2.17098 10.5638 2.17171 10.5647C2.17231 10.5654 2.17267 10.5663 2.17267 10.5674V10.5732H2.16929V10.5683V10.5678C2.16929 10.5673 2.16905 10.5668 2.16881 10.5665C2.16881 10.5663 2.16857 10.566 2.16833 10.566C2.1676 10.566 2.16712 10.5664 2.16688 10.5669C2.16651 10.5673 2.16639 10.5678 2.16639 10.5687V10.5732H2.16301V10.5683C2.16301 10.5674 2.16277 10.5668 2.16253 10.5665C2.16253 10.5663 2.16217 10.566 2.16156 10.566C2.16084 10.566 2.16036 10.5664 2.16011 10.5669C2.15975 10.5673 2.15963 10.5678 2.15963 10.5687V10.5732H2.15625V10.5638H2.15963V10.5651C2.15987 10.5646 2.16024 10.5641 2.1606 10.5638C2.1612 10.5636 2.1618 10.5634 2.16253 10.5634C2.1635 10.5634 2.1641 10.5637 2.16446 10.5643C2.16507 10.5646 2.16555 10.5649 2.16591 10.5651Z" fill="#13121C"/>
<path d="M2.17862 10.5615V10.5643H2.18198V10.5666H2.17862V10.5708V10.5717H2.17958H2.1815V10.574H2.17862C2.17731 10.574 2.17635 10.5738 2.17575 10.5731C2.17539 10.5725 2.17527 10.5717 2.17527 10.5708V10.5666H2.17383V10.5643H2.17527V10.5615H2.17862Z" fill="#13121C"/>
<path d="M2.19144 10.5674V10.5728H2.18832V10.5687V10.5674C2.18832 10.5672 2.1881 10.5669 2.18788 10.5666C2.18788 10.5664 2.18765 10.5662 2.18743 10.5662H2.18654C2.18621 10.5662 2.18576 10.5665 2.1852 10.567C2.18487 10.5673 2.18476 10.5678 2.18476 10.5687V10.5728H2.18164V10.5603H2.18476V10.5653C2.18498 10.5648 2.18543 10.5644 2.18609 10.5641C2.18665 10.5639 2.18721 10.5636 2.18788 10.5636C2.18899 10.5636 2.18988 10.5641 2.19055 10.5649C2.19111 10.5655 2.19144 10.5664 2.19144 10.5674Z" fill="#13121C"/>
<path d="M2.20284 10.5691V10.5706H2.19452C2.19478 10.5714 2.19517 10.5719 2.19556 10.5722C2.19582 10.5726 2.1966 10.5727 2.19764 10.5727H2.19972C2.20076 10.5724 2.2018 10.5719 2.20284 10.5711V10.5743C2.2018 10.5743 2.20076 10.5745 2.19972 10.5748C2.19894 10.575 2.19829 10.5753 2.19764 10.5753C2.19556 10.5753 2.194 10.5748 2.19297 10.5737C2.19193 10.5727 2.19141 10.5714 2.19141 10.5696C2.19141 10.5675 2.19193 10.566 2.19297 10.5649C2.194 10.5639 2.1953 10.5634 2.19712 10.5634C2.19881 10.5634 2.20024 10.5639 2.20128 10.5649C2.20232 10.566 2.20284 10.5674 2.20284 10.5691ZM2.19972 10.568C2.19972 10.5674 2.19933 10.5669 2.19868 10.5665C2.19829 10.5662 2.19777 10.566 2.19712 10.566C2.19634 10.566 2.19582 10.5662 2.19556 10.5665C2.19517 10.5669 2.19478 10.5674 2.19452 10.568H2.19972Z" fill="#13121C"/>
<path d="M2.20312 10.5612H2.20636L2.21144 10.5695V10.5612H2.21467V10.5735H2.21098L2.2059 10.5651V10.5735H2.20313L2.20312 10.5612Z" fill="#13121C"/>
<path d="M2.22251 10.5658C2.22173 10.5658 2.22108 10.5662 2.22043 10.5669C2.22004 10.5673 2.21991 10.5682 2.21991 10.5695C2.21991 10.5705 2.22004 10.5714 2.22043 10.5721C2.22108 10.5725 2.22173 10.5726 2.22251 10.5726C2.22355 10.5726 2.2242 10.5725 2.22459 10.5721C2.22485 10.5714 2.22511 10.5705 2.22511 10.5695C2.22511 10.5682 2.22485 10.5673 2.22459 10.5669C2.2242 10.5662 2.22355 10.5658 2.22251 10.5658ZM2.22251 10.5632C2.22459 10.5632 2.22615 10.5638 2.22719 10.5648C2.22823 10.5658 2.22875 10.5674 2.22875 10.5695C2.22875 10.5713 2.22823 10.5726 2.22719 10.5736C2.22615 10.5747 2.22459 10.5752 2.22251 10.5752C2.22069 10.5752 2.21939 10.5747 2.21836 10.5736C2.21732 10.5726 2.2168 10.5713 2.2168 10.5695C2.2168 10.5674 2.21732 10.5658 2.21836 10.5648C2.21939 10.5638 2.22069 10.5632 2.22251 10.5632Z" fill="#13121C"/>
<path d="M2.22656 10.5699V10.5635H2.23V10.5645V10.5664V10.5684V10.5703V10.5708C2.23024 10.5712 2.23049 10.5713 2.23049 10.5713H2.23147C2.23208 10.5713 2.23257 10.5712 2.23294 10.5708C2.23355 10.5702 2.23392 10.5694 2.23392 10.5684V10.5635H2.23686V10.5738H2.23392V10.5723C2.23318 10.573 2.23257 10.5735 2.23196 10.5738C2.23159 10.574 2.23098 10.5743 2.23 10.5743C2.22901 10.5743 2.22816 10.5739 2.22754 10.5733C2.22681 10.5723 2.22656 10.5712 2.22656 10.5699Z" fill="#13121C"/>
<path d="M2.24516 10.5676V10.574H2.24173V10.5691V10.5676C2.24173 10.5674 2.24149 10.567 2.24124 10.5667C2.24124 10.5664 2.24099 10.5662 2.24075 10.5662H2.23977C2.2394 10.5662 2.23891 10.5665 2.2383 10.5672C2.23793 10.5675 2.23781 10.5681 2.23781 10.5691V10.574H2.23438V10.5637H2.23781V10.5652C2.23805 10.5646 2.23854 10.5641 2.23928 10.5637C2.23989 10.5635 2.2405 10.5632 2.24124 10.5632C2.24247 10.5632 2.24345 10.5637 2.24418 10.5647C2.24479 10.5654 2.24516 10.5664 2.24516 10.5676Z" fill="#13121C"/>
<path d="M2.25 10.561H2.25554C2.25704 10.561 2.25831 10.5614 2.25924 10.5619C2.26016 10.5626 2.26062 10.5636 2.26062 10.565C2.26062 10.5665 2.26016 10.5675 2.25924 10.5681C2.25831 10.5687 2.25704 10.5689 2.25554 10.5689H2.25323V10.5733H2.25L2.25 10.561ZM2.25323 10.5632V10.5667H2.25508C2.25566 10.5667 2.25612 10.5666 2.25647 10.5663C2.2567 10.5661 2.25693 10.5656 2.25693 10.565C2.25693 10.5644 2.2567 10.564 2.25647 10.5637C2.25612 10.5634 2.25566 10.5632 2.25508 10.5632H2.25323Z" fill="#13121C"/>
<path d="M2.27152 10.5667C2.27115 10.5664 2.27078 10.5662 2.27054 10.5662H2.27005C2.26907 10.5662 2.26821 10.5665 2.26759 10.5672C2.26723 10.5675 2.2671 10.5681 2.2671 10.5691V10.574H2.26367V10.5637H2.2671V10.5652C2.26735 10.5646 2.26772 10.5641 2.26809 10.5637C2.2687 10.5635 2.26956 10.5632 2.27054 10.5632H2.27103H2.27152V10.5667Z" fill="#13121C"/>
<path d="M2.27134 10.5658C2.27056 10.5658 2.26991 10.5662 2.26926 10.5669C2.26887 10.5673 2.26874 10.5682 2.26874 10.5695C2.26874 10.5705 2.26887 10.5714 2.26926 10.5721C2.26991 10.5725 2.27056 10.5726 2.27134 10.5726C2.27238 10.5726 2.27303 10.5725 2.27342 10.5721C2.27368 10.5714 2.27394 10.5705 2.27394 10.5695C2.27394 10.5682 2.27368 10.5673 2.27342 10.5669C2.27303 10.5662 2.27238 10.5658 2.27134 10.5658ZM2.27134 10.5632C2.27342 10.5632 2.27498 10.5638 2.27602 10.5648C2.27706 10.5658 2.27758 10.5674 2.27758 10.5695C2.27758 10.5713 2.27706 10.5726 2.27602 10.5736C2.27498 10.5747 2.27342 10.5752 2.27134 10.5752C2.26952 10.5752 2.26822 10.5747 2.26718 10.5736C2.26614 10.5726 2.26562 10.5713 2.26562 10.5695C2.26562 10.5674 2.26614 10.5658 2.26718 10.5648C2.26822 10.5638 2.26952 10.5632 2.27134 10.5632Z" fill="#13121C"/>
<path d="M2.27711 10.5638H2.28011V10.5717C2.28011 10.573 2.27979 10.5739 2.27925 10.5745C2.27861 10.575 2.27775 10.5753 2.27668 10.5753H2.27539V10.5737H2.27582C2.27636 10.5737 2.27668 10.5735 2.27668 10.5733C2.27689 10.573 2.27711 10.5725 2.27711 10.5717L2.27711 10.5638ZM2.27711 10.5602H2.28011V10.5626H2.27711V10.5602Z" fill="#13121C"/>
<path d="M2.29073 10.5688V10.5704H2.28241C2.28267 10.5712 2.28306 10.5717 2.28345 10.5719C2.28371 10.5723 2.28449 10.5725 2.28553 10.5725H2.28761C2.28865 10.5722 2.28969 10.5717 2.29073 10.5709V10.574C2.28969 10.574 2.28865 10.5743 2.28761 10.5745C2.28683 10.5748 2.28618 10.5751 2.28553 10.5751C2.28345 10.5751 2.28189 10.5745 2.28086 10.5735C2.27982 10.5725 2.2793 10.5712 2.2793 10.5693C2.2793 10.5673 2.27982 10.5657 2.28086 10.5647C2.28189 10.5636 2.28319 10.5631 2.28501 10.5631C2.2867 10.5631 2.28813 10.5636 2.28917 10.5647C2.29021 10.5657 2.29073 10.5671 2.29073 10.5688ZM2.28761 10.5678C2.28761 10.5671 2.28722 10.5666 2.28657 10.5662C2.28618 10.566 2.28566 10.5657 2.28501 10.5657C2.28423 10.5657 2.28371 10.566 2.28345 10.5662C2.28306 10.5666 2.28267 10.5671 2.28241 10.5678H2.28761Z" fill="#13121C"/>
<path d="M2.30284 10.5639V10.567C2.30206 10.5667 2.30141 10.5665 2.30076 10.5665C2.30037 10.5662 2.29985 10.566 2.2992 10.566C2.29842 10.566 2.29778 10.5663 2.29713 10.567C2.29635 10.5678 2.29609 10.5686 2.29609 10.5696C2.29609 10.5704 2.29635 10.571 2.29713 10.5717C2.29778 10.5724 2.29842 10.5727 2.2992 10.5727H2.30076C2.30141 10.5724 2.30206 10.5721 2.30284 10.5717V10.5743C2.30206 10.5747 2.30141 10.5748 2.30076 10.5748C2.30037 10.575 2.29985 10.5753 2.2992 10.5753C2.29713 10.5753 2.29557 10.5748 2.29453 10.5737C2.29349 10.5727 2.29297 10.5714 2.29297 10.5696C2.29297 10.5675 2.29349 10.566 2.29453 10.5649C2.29557 10.5639 2.29713 10.5634 2.2992 10.5634C2.29985 10.5634 2.30037 10.5636 2.30076 10.5639L2.30284 10.5639Z" fill="#13121C"/>
<path d="M2.30362 10.5615V10.5643H2.30698V10.5666H2.30362V10.5708V10.5717H2.30458H2.3065V10.574H2.30362C2.30231 10.574 2.30135 10.5738 2.30075 10.5731C2.30039 10.5725 2.30027 10.5717 2.30027 10.5708V10.5666H2.29883V10.5643H2.30027V10.5615H2.30362Z" fill="#13121C"/>
<path d="M7.69765 7.00982L5.90625 5.72693" stroke="#13121C" stroke-width="0.799953" stroke-linecap="round"/>
<path d="M11.2526 6.33382L12.4746 4.50037" stroke="#13121C" stroke-width="0.799953" stroke-linecap="round"/>
<path d="M9.48412 6.0683L9.125 4.12708" stroke="#13121C" stroke-width="0.799953" stroke-linecap="round"/>
<path d="M7.50567 8.94471L5.56445 9.30383" stroke="#13121C" stroke-width="0.799953" stroke-linecap="round"/>
<path d="M10.1328 8.7637L11.1197 13.6705C11.1251 13.7144 11.1439 13.7556 11.1735 13.7886C11.2031 13.8215 11.2421 13.8446 11.2852 13.8547C11.3284 13.8648 11.3736 13.8614 11.4147 13.8451C11.4559 13.8287 11.491 13.8001 11.5154 13.7632L12.5342 12.2213C12.5517 12.1948 12.5747 12.1726 12.6017 12.156C12.6287 12.1395 12.659 12.129 12.6904 12.1254L14.5266 11.9158C14.5706 11.9108 14.612 11.8924 14.6453 11.8632C14.6785 11.8339 14.702 11.7951 14.7125 11.7521C14.723 11.7091 14.7201 11.6639 14.7042 11.6226C14.6882 11.5812 14.66 11.5458 14.6233 11.521L10.4691 8.55743C10.4346 8.53415 10.3941 8.52129 10.3525 8.52038C10.3109 8.51947 10.27 8.53056 10.2345 8.55231C10.1991 8.57406 10.1706 8.60557 10.1526 8.64305C10.1345 8.68054 10.1277 8.72242 10.1328 8.7637Z" fill="#13121C" stroke="#13121C" stroke-width="0.799953" stroke-linecap="round" stroke-linejoin="round"/>
<path d="M12.6016 12.156L14.0318 14.4874" stroke="#13121C" stroke-width="0.799953" stroke-linecap="round" stroke-linejoin="round"/>
<path d="M14.3989 9.33288V6.36392C14.3989 5.92212 14.0407 5.56396 13.5989 5.56396V5.56396M8.79918 10.897H2.66621C2.07714 10.897 1.59961 10.4194 1.59961 9.83038V6.63057C1.59961 6.0415 2.07714 5.56396 2.66621 5.56396H3.99947" stroke="#13121C" stroke-width="0.799953" stroke-linecap="round"/>
</g>
<defs>
<clipPath id="clip0_824_35743">
<rect width="15.9991" height="15.9991" fill="white"/>
</clipPath>
</defs>
</svg>
