<svg width="270" height="29" viewBox="0 0 270 29" fill="none" xmlns="http://www.w3.org/2000/svg">
<line x1="83.5" y1="2" x2="83.5" y2="27" stroke="#555469"/>
<line x1="188.5" y1="2" x2="188.5" y2="27" stroke="#555469"/>
<g clip-path="url(#clip0_305_2299)">
<path d="M13.75 14.9999L16.1193 17.7081L19.3053 19.7441L19.8608 15.0165L19.3053 10.3945L16.0582 12.1833L13.75 14.9999Z" fill="#00832D"/>
<path d="M0 19.3055V23.3331C0 24.2539 0.7458 24.9997 1.66659 24.9997H5.69419L6.52748 21.9553L5.69419 19.3055L2.93042 18.4722L0 19.3055Z" fill="#0066DA"/>
<path d="M5.69419 5.00049L0 10.6947L2.93042 11.528L5.69419 10.6947L6.5136 8.08091L5.69419 5.00049Z" fill="#E94235"/>
<path d="M5.69419 10.6948H0V19.3055H5.69419V10.6948Z" fill="#2684FC"/>
<path d="M22.9426 7.41125L19.3039 10.3944V19.744L22.9593 22.7411C23.5064 23.1689 24.3064 22.7786 24.3064 22.0828V8.05567C24.3064 7.35153 23.4884 6.96544 22.9426 7.41125ZM13.7486 14.9998V19.3052H5.69336V24.9993H17.6373C18.5581 24.9993 19.3039 24.2536 19.3039 23.3328V19.744L13.7486 14.9998Z" fill="#00AC47"/>
<path d="M17.6373 5.00049H5.69336V10.6947H13.7486V15L19.3039 10.3975V6.66708C19.3039 5.74629 18.5581 5.00049 17.6373 5.00049Z" fill="#FFBA00"/>
</g>
<path d="M34.7706 9.81818H37.8182L40.4034 16.1222H40.5227L43.108 9.81818H46.1555V20H43.7592V13.7457H43.6747L41.2287 19.9354H39.6974L37.2514 13.7109H37.1669V20H34.7706V9.81818ZM51.2601 20.1442C50.4614 20.1442 49.772 19.9867 49.1919 19.6719C48.6152 19.3537 48.1711 18.9013 47.8596 18.3146C47.5513 17.7247 47.3972 17.0237 47.3972 16.2116C47.3972 15.4228 47.553 14.7334 47.8645 14.1435C48.1761 13.5502 48.6152 13.0895 49.182 12.7614C49.7488 12.4299 50.4166 12.2642 51.1855 12.2642C51.7291 12.2642 52.2263 12.3487 52.677 12.5178C53.1278 12.6868 53.5172 12.937 53.8453 13.2685C54.1735 13.5999 54.4287 14.0092 54.611 14.4964C54.7933 14.9804 54.8844 15.5355 54.8844 16.1619V16.7685H48.2473V15.3565H52.6223C52.619 15.098 52.5577 14.8677 52.4384 14.6655C52.3191 14.4633 52.155 14.3059 51.9462 14.1932C51.7407 14.0772 51.5037 14.0192 51.2353 14.0192C50.9635 14.0192 50.7199 14.0805 50.5044 14.2031C50.289 14.3224 50.1183 14.4865 49.9924 14.6953C49.8664 14.9008 49.8001 15.1345 49.7935 15.3963V16.8331C49.7935 17.1446 49.8548 17.4181 49.9775 17.6534C50.1001 17.8854 50.2741 18.0661 50.4995 18.1953C50.7248 18.3246 50.9933 18.3892 51.3049 18.3892C51.5203 18.3892 51.7159 18.3594 51.8915 18.2997C52.0672 18.2401 52.218 18.1522 52.3439 18.0362C52.4699 17.9202 52.5643 17.7777 52.6273 17.6087L54.8596 17.6733C54.7667 18.1738 54.5629 18.6096 54.248 18.9808C53.9365 19.3487 53.5272 19.6354 53.0201 19.8409C52.513 20.0431 51.9263 20.1442 51.2601 20.1442ZM59.6957 20.1442C58.8969 20.1442 58.2075 19.9867 57.6275 19.6719C57.0508 19.3537 56.6067 18.9013 56.2951 18.3146C55.9869 17.7247 55.8327 17.0237 55.8327 16.2116C55.8327 15.4228 55.9885 14.7334 56.3001 14.1435C56.6116 13.5502 57.0508 13.0895 57.6175 12.7614C58.1843 12.4299 58.8522 12.2642 59.6211 12.2642C60.1647 12.2642 60.6618 12.3487 61.1126 12.5178C61.5633 12.6868 61.9528 12.937 62.2809 13.2685C62.609 13.5999 62.8642 14.0092 63.0465 14.4964C63.2288 14.9804 63.32 15.5355 63.32 16.1619V16.7685H56.6829V15.3565H61.0579C61.0546 15.098 60.9933 14.8677 60.8739 14.6655C60.7546 14.4633 60.5906 14.3059 60.3817 14.1932C60.1763 14.0772 59.9393 14.0192 59.6708 14.0192C59.399 14.0192 59.1554 14.0805 58.94 14.2031C58.7246 14.3224 58.5539 14.4865 58.4279 14.6953C58.302 14.9008 58.2357 15.1345 58.229 15.3963V16.8331C58.229 17.1446 58.2904 17.4181 58.413 17.6534C58.5356 17.8854 58.7096 18.0661 58.935 18.1953C59.1604 18.3246 59.4289 18.3892 59.7404 18.3892C59.9558 18.3892 60.1514 18.3594 60.3271 18.2997C60.5027 18.2401 60.6535 18.1522 60.7795 18.0362C60.9054 17.9202 60.9999 17.7777 61.0629 17.6087L63.2951 17.6733C63.2023 18.1738 62.9985 18.6096 62.6836 18.9808C62.372 19.3487 61.9627 19.6354 61.4556 19.8409C60.9485 20.0431 60.3619 20.1442 59.6957 20.1442ZM68.872 12.3636V14.1534H64.0545V12.3636H68.872ZM65.0637 10.5341H67.4949V17.5987C67.4949 17.7479 67.5181 17.8688 67.5645 17.9616C67.6142 18.0511 67.6854 18.1158 67.7782 18.1555C67.871 18.192 67.9821 18.2102 68.1113 18.2102C68.2041 18.2102 68.3019 18.2019 68.4047 18.1854C68.5107 18.1655 68.5903 18.1489 68.6433 18.1357L69.0112 19.8906C68.8952 19.9238 68.7311 19.9652 68.519 20.0149C68.3102 20.0646 68.06 20.0961 67.7683 20.1094C67.1982 20.1359 66.7093 20.0696 66.3017 19.9105C65.8973 19.7481 65.5874 19.4962 65.372 19.1548C65.1599 18.8134 65.0571 18.3842 65.0637 17.8672V10.5341Z" fill="#13121C"/>
<g clip-path="url(#clip1_305_2299)">
<path d="M111.346 11.6812H117.029C117.565 11.6812 118.001 12.1167 118.001 12.6541V17.8347C118.001 19.8095 116.401 21.4105 114.428 21.4105H114.411C112.438 21.4107 110.838 19.81 110.838 17.8352C110.838 17.835 110.838 17.8349 110.838 17.8347V12.1896C110.838 11.9088 111.065 11.6812 111.346 11.6812Z" fill="#5059C9"/>
<path d="M115.185 10.657C116.457 10.657 117.487 9.62529 117.487 8.35265C117.487 7.08002 116.457 6.04834 115.185 6.04834C113.914 6.04834 112.883 7.08002 112.883 8.35265C112.883 9.62529 113.914 10.657 115.185 10.657Z" fill="#5059C9"/>
<path d="M108.023 10.6569C109.86 10.6569 111.348 9.16671 111.348 7.32845C111.348 5.4902 109.86 4 108.023 4C106.186 4 104.697 5.4902 104.697 7.32845C104.697 9.16671 106.186 10.6569 108.023 10.6569Z" fill="#7B83EB"/>
<path d="M112.458 11.6812H103.078C102.548 11.6943 102.128 12.1349 102.14 12.6659V18.5746C102.066 21.7608 104.585 24.4049 107.768 24.4829C110.952 24.4049 113.47 21.7608 113.396 18.5746V12.6659C113.408 12.1349 112.989 11.6943 112.458 11.6812Z" fill="#7B83EB"/>
<path opacity="0.1" d="M108.278 11.6812V19.9613C108.276 20.341 108.046 20.6821 107.695 20.8267C107.584 20.874 107.463 20.8984 107.342 20.8984H102.589C102.523 20.7294 102.461 20.5604 102.41 20.3863C102.231 19.7987 102.14 19.1879 102.139 18.5736V12.6643C102.127 12.1342 102.546 11.6943 103.075 11.6812H108.278Z" fill="black"/>
<path opacity="0.2" d="M107.767 11.6812V20.4734C107.767 20.5948 107.742 20.7149 107.695 20.8267C107.551 21.1778 107.21 21.4079 106.831 21.4105H102.83C102.743 21.2415 102.661 21.0725 102.589 20.8984C102.518 20.7243 102.461 20.5604 102.41 20.3863C102.231 19.7988 102.14 19.1879 102.139 18.5736V12.6643C102.127 12.1342 102.546 11.6943 103.075 11.6812H107.767Z" fill="black"/>
<path opacity="0.2" d="M107.767 11.6812V19.4492C107.763 19.9652 107.346 20.3824 106.831 20.3863H102.41C102.231 19.7988 102.14 19.1879 102.139 18.5736V12.6643C102.127 12.1342 102.546 11.6943 103.075 11.6812H107.767Z" fill="black"/>
<path opacity="0.2" d="M107.255 11.6812V19.4492C107.251 19.9652 106.834 20.3824 106.319 20.3863H102.41C102.231 19.7988 102.14 19.1879 102.139 18.5736V12.6643C102.127 12.1342 102.546 11.6943 103.075 11.6812H107.255Z" fill="black"/>
<path opacity="0.1" d="M108.278 9.03376V10.6468C108.191 10.6519 108.11 10.657 108.023 10.657C107.936 10.657 107.854 10.6519 107.767 10.6468C107.594 10.6353 107.423 10.6079 107.255 10.5648C106.219 10.3193 105.363 9.59206 104.953 8.60875C104.882 8.44362 104.827 8.27215 104.789 8.09668H107.342C107.858 8.09864 108.276 8.51703 108.278 9.03376Z" fill="black"/>
<path opacity="0.2" d="M107.767 9.54547V10.6464C107.594 10.635 107.423 10.6075 107.255 10.5645C106.219 10.3189 105.363 9.59171 104.953 8.6084H106.831C107.347 8.61035 107.765 9.02876 107.767 9.54547Z" fill="black"/>
<path opacity="0.2" d="M107.767 9.54547V10.6464C107.594 10.635 107.423 10.6075 107.255 10.5645C106.219 10.3189 105.363 9.59171 104.953 8.6084H106.831C107.347 8.61035 107.765 9.02876 107.767 9.54547Z" fill="black"/>
<path opacity="0.2" d="M107.255 9.54548V10.5645C106.219 10.3189 105.363 9.59171 104.953 8.6084H106.319C106.835 8.61036 107.253 9.02877 107.255 9.54548Z" fill="black"/>
<path d="M96.9378 8.6084H106.318C106.836 8.6084 107.256 9.02864 107.256 9.54702V18.9353C107.256 19.4537 106.836 19.8739 106.318 19.8739H96.9378C96.4199 19.8739 96 19.4537 96 18.9353V9.54702C96 9.02864 96.4199 8.6084 96.9378 8.6084Z" fill="url(#paint0_linear_305_2299)"/>
<path d="M104.096 12.1818H102.221V17.2922H101.027V12.1818H99.1602V11.1904H104.096V12.1818Z" fill="white"/>
</g>
<path d="M128.438 11.8168V9.81818H137.043V11.8168H133.956V20H131.53V11.8168H128.438ZM140.707 20.1442C139.909 20.1442 139.219 19.9867 138.639 19.6719C138.063 19.3537 137.618 18.9013 137.307 18.3146C136.999 17.7247 136.844 17.0237 136.844 16.2116C136.844 15.4228 137 14.7334 137.312 14.1435C137.623 13.5502 138.062 13.0895 138.629 12.7614C139.196 12.4299 139.864 12.2642 140.633 12.2642C141.176 12.2642 141.674 12.3487 142.124 12.5178C142.575 12.6868 142.964 12.937 143.293 13.2685C143.621 13.5999 143.876 14.0092 144.058 14.4964C144.241 14.9804 144.332 15.5355 144.332 16.1619V16.7685H137.695V15.3565H142.07C142.066 15.098 142.005 14.8677 141.886 14.6655C141.766 14.4633 141.602 14.3059 141.393 14.1932C141.188 14.0772 140.951 14.0192 140.683 14.0192C140.411 14.0192 140.167 14.0805 139.952 14.2031C139.736 14.3224 139.566 14.4865 139.44 14.6953C139.314 14.9008 139.247 15.1345 139.241 15.3963V16.8331C139.241 17.1446 139.302 17.4181 139.425 17.6534C139.547 17.8854 139.721 18.0661 139.947 18.1953C140.172 18.3246 140.441 18.3892 140.752 18.3892C140.968 18.3892 141.163 18.3594 141.339 18.2997C141.514 18.2401 141.665 18.1522 141.791 18.0362C141.917 17.9202 142.012 17.7777 142.075 17.6087L144.307 17.6733C144.214 18.1738 144.01 18.6096 143.695 18.9808C143.384 19.3487 142.974 19.6354 142.467 19.8409C141.96 20.0431 141.374 20.1442 140.707 20.1442ZM147.726 20.1293C147.239 20.1293 146.806 20.0481 146.428 19.8857C146.054 19.7199 145.757 19.4714 145.539 19.1399C145.323 18.8052 145.215 18.3859 145.215 17.8821C145.215 17.4579 145.29 17.0999 145.439 16.8082C145.588 16.5166 145.794 16.2796 146.056 16.0973C146.317 15.915 146.619 15.7775 146.96 15.6847C147.302 15.5885 147.666 15.5239 148.054 15.4908C148.488 15.451 148.838 15.4096 149.103 15.3665C149.368 15.3201 149.561 15.2554 149.68 15.1726C149.802 15.0864 149.864 14.9654 149.864 14.8097V14.7848C149.864 14.5296 149.776 14.3324 149.6 14.1932C149.425 14.054 149.188 13.9844 148.889 13.9844C148.568 13.9844 148.309 14.054 148.114 14.1932C147.918 14.3324 147.794 14.5246 147.741 14.7699L145.499 14.6903C145.565 14.2263 145.736 13.812 146.011 13.4474C146.289 13.0795 146.67 12.7912 147.154 12.5824C147.642 12.3703 148.227 12.2642 148.909 12.2642C149.396 12.2642 149.846 12.3222 150.257 12.4382C150.668 12.5509 151.026 12.7166 151.33 12.9354C151.635 13.1508 151.871 13.416 152.036 13.7308C152.205 14.0457 152.29 14.4053 152.29 14.8097V20H150.003V18.9361H149.943C149.807 19.1946 149.633 19.4134 149.421 19.5923C149.213 19.7713 148.966 19.9055 148.681 19.995C148.399 20.0845 148.081 20.1293 147.726 20.1293ZM148.477 18.5384C148.739 18.5384 148.974 18.4853 149.183 18.3793C149.395 18.2732 149.564 18.1274 149.69 17.9418C149.816 17.7528 149.879 17.5341 149.879 17.2855V16.5597C149.809 16.5961 149.725 16.6293 149.625 16.6591C149.529 16.6889 149.423 16.7171 149.307 16.7436C149.191 16.7701 149.072 16.7933 148.949 16.8132C148.826 16.8331 148.709 16.8513 148.596 16.8679C148.367 16.9044 148.172 16.9607 148.009 17.0369C147.85 17.1132 147.728 17.2126 147.642 17.3352C147.559 17.4545 147.517 17.5971 147.517 17.7628C147.517 18.0147 147.607 18.2069 147.786 18.3395C147.968 18.4721 148.198 18.5384 148.477 18.5384ZM153.776 20V12.3636H156.088V13.7656H156.173C156.332 13.3016 156.6 12.9354 156.978 12.6669C157.356 12.3984 157.807 12.2642 158.33 12.2642C158.861 12.2642 159.315 12.4001 159.693 12.6719C160.07 12.9437 160.311 13.3082 160.414 13.7656H160.493C160.636 13.3116 160.914 12.9486 161.328 12.6768C161.743 12.4018 162.231 12.2642 162.795 12.2642C163.517 12.2642 164.104 12.4962 164.555 12.9602C165.006 13.4209 165.231 14.054 165.231 14.8594V20H162.8V15.4162C162.8 15.035 162.702 14.745 162.507 14.5462C162.311 14.344 162.057 14.2429 161.746 14.2429C161.411 14.2429 161.148 14.3523 160.955 14.571C160.767 14.7865 160.672 15.0765 160.672 15.4411V20H158.335V15.3913C158.335 15.0367 158.239 14.7566 158.047 14.5511C157.855 14.3456 157.601 14.2429 157.286 14.2429C157.074 14.2429 156.887 14.2943 156.725 14.397C156.562 14.4964 156.435 14.639 156.342 14.8246C156.252 15.0102 156.208 15.2289 156.208 15.4808V20H153.776ZM173.404 14.6953L171.172 14.755C171.149 14.5959 171.086 14.455 170.983 14.3324C170.88 14.2064 170.746 14.1087 170.58 14.0391C170.418 13.9661 170.229 13.9297 170.014 13.9297C169.732 13.9297 169.492 13.986 169.293 14.0987C169.097 14.2114 169.001 14.3639 169.004 14.5561C169.001 14.7053 169.061 14.8345 169.183 14.9439C169.309 15.0533 169.533 15.1411 169.855 15.2074L171.326 15.4858C172.088 15.6316 172.655 15.8736 173.026 16.2116C173.401 16.5497 173.59 16.9972 173.593 17.554C173.59 18.0777 173.434 18.5334 173.126 18.9212C172.821 19.3089 172.403 19.6106 171.873 19.826C171.343 20.0381 170.736 20.1442 170.053 20.1442C168.963 20.1442 168.103 19.9205 167.473 19.473C166.847 19.0223 166.489 18.419 166.399 17.6634L168.801 17.6037C168.854 17.8821 168.991 18.0942 169.213 18.2401C169.435 18.3859 169.719 18.4588 170.063 18.4588C170.375 18.4588 170.628 18.4008 170.824 18.2848C171.02 18.1688 171.119 18.0147 171.122 17.8224C171.119 17.6501 171.043 17.5125 170.894 17.4098C170.744 17.3037 170.511 17.2209 170.193 17.1612L168.86 16.9077C168.095 16.7685 167.525 16.5116 167.15 16.1371C166.776 15.7592 166.59 15.2786 166.593 14.6953C166.59 14.1849 166.726 13.7491 167.001 13.3878C167.276 13.0232 167.667 12.7448 168.174 12.5526C168.681 12.3603 169.28 12.2642 169.969 12.2642C171.003 12.2642 171.818 12.4813 172.415 12.9155C173.012 13.3464 173.341 13.9396 173.404 14.6953Z" fill="#13121C"/>
<path d="M211.5 28C218.404 28 224 22.4036 224 15.5C224 8.59644 218.404 3 211.5 3C204.596 3 199 8.59644 199 15.5C199 22.4036 204.596 28 211.5 28Z" fill="#4A8CFF"/>
<path d="M211.5 27C217.851 27 223 21.8513 223 15.5C223 9.14873 217.851 4 211.5 4C205.149 4 200 9.14873 200 15.5C200 21.8513 205.149 27 211.5 27Z" fill="white"/>
<path d="M211.5 26C217.299 26 222 21.299 222 15.5C222 9.70101 217.299 5 211.5 5C205.701 5 201 9.70101 201 15.5C201 21.299 205.701 26 211.5 26Z" fill="#4A8CFF"/>
<path d="M214.511 14.0145L217.439 11.8753C217.694 11.667 217.889 11.7154 217.889 12.1005V18.624C217.889 19.0563 217.646 19.0068 217.439 18.8492L214.511 16.7099V14.0145ZM204.604 12.1162V16.9801C204.606 17.5082 204.818 18.0136 205.194 18.3851C205.569 18.7567 206.076 18.9641 206.604 18.9617H213.697C213.793 18.962 213.886 18.9243 213.954 18.8568C214.022 18.7892 214.061 18.6974 214.061 18.6015V13.7375C214.058 13.2095 213.846 12.7041 213.471 12.3325C213.096 11.9609 212.588 11.7535 212.06 11.7559H204.967C204.871 11.7556 204.779 11.7934 204.711 11.8609C204.643 11.9285 204.604 12.0203 204.604 12.1162Z" fill="white"/>
<path d="M230.736 20V18.598L235.683 11.8168H230.741V9.81818H238.795V11.2202L233.848 18.0014H238.79V20H230.736ZM243.865 20.1442C243.062 20.1442 242.373 19.9801 241.796 19.652C241.223 19.3205 240.78 18.8598 240.469 18.2699C240.161 17.6766 240.007 16.9889 240.007 16.2067C240.007 15.4212 240.161 14.7334 240.469 14.1435C240.78 13.5502 241.223 13.0895 241.796 12.7614C242.373 12.4299 243.062 12.2642 243.865 12.2642C244.667 12.2642 245.354 12.4299 245.928 12.7614C246.504 13.0895 246.947 13.5502 247.255 14.1435C247.567 14.7334 247.722 15.4212 247.722 16.2067C247.722 16.9889 247.567 17.6766 247.255 18.2699C246.947 18.8598 246.504 19.3205 245.928 19.652C245.354 19.9801 244.667 20.1442 243.865 20.1442ZM243.879 18.3097C244.171 18.3097 244.418 18.2202 244.62 18.0412C244.822 17.8622 244.977 17.6136 245.083 17.2955C245.192 16.9773 245.247 16.6094 245.247 16.1918C245.247 15.7675 245.192 15.3963 245.083 15.0781C244.977 14.7599 244.822 14.5114 244.62 14.3324C244.418 14.1534 244.171 14.0639 243.879 14.0639C243.578 14.0639 243.323 14.1534 243.114 14.3324C242.908 14.5114 242.751 14.7599 242.642 15.0781C242.535 15.3963 242.482 15.7675 242.482 16.1918C242.482 16.6094 242.535 16.9773 242.642 17.2955C242.751 17.6136 242.908 17.8622 243.114 18.0412C243.323 18.2202 243.578 18.3097 243.879 18.3097ZM252.532 20.1442C251.73 20.1442 251.041 19.9801 250.464 19.652C249.891 19.3205 249.448 18.8598 249.137 18.2699C248.829 17.6766 248.675 16.9889 248.675 16.2067C248.675 15.4212 248.829 14.7334 249.137 14.1435C249.448 13.5502 249.891 13.0895 250.464 12.7614C251.041 12.4299 251.73 12.2642 252.532 12.2642C253.335 12.2642 254.022 12.4299 254.596 12.7614C255.172 13.0895 255.615 13.5502 255.923 14.1435C256.235 14.7334 256.39 15.4212 256.39 16.2067C256.39 16.9889 256.235 17.6766 255.923 18.2699C255.615 18.8598 255.172 19.3205 254.596 19.652C254.022 19.9801 253.335 20.1442 252.532 20.1442ZM252.547 18.3097C252.839 18.3097 253.086 18.2202 253.288 18.0412C253.49 17.8622 253.644 17.6136 253.751 17.2955C253.86 16.9773 253.915 16.6094 253.915 16.1918C253.915 15.7675 253.86 15.3963 253.751 15.0781C253.644 14.7599 253.49 14.5114 253.288 14.3324C253.086 14.1534 252.839 14.0639 252.547 14.0639C252.246 14.0639 251.991 14.1534 251.782 14.3324C251.576 14.5114 251.419 14.7599 251.309 15.0781C251.203 15.3963 251.15 15.7675 251.15 16.1918C251.15 16.6094 251.203 16.9773 251.309 17.2955C251.419 17.6136 251.576 17.8622 251.782 18.0412C251.991 18.2202 252.246 18.3097 252.547 18.3097ZM257.636 20V12.3636H259.948V13.7656H260.032C260.191 13.3016 260.46 12.9354 260.838 12.6669C261.215 12.3984 261.666 12.2642 262.19 12.2642C262.72 12.2642 263.174 12.4001 263.552 12.6719C263.93 12.9437 264.17 13.3082 264.273 13.7656H264.352C264.495 13.3116 264.773 12.9486 265.188 12.6768C265.602 12.4018 266.091 12.2642 266.654 12.2642C267.377 12.2642 267.963 12.4962 268.414 12.9602C268.865 13.4209 269.09 14.054 269.09 14.8594V20H266.659V15.4162C266.659 15.035 266.561 14.745 266.366 14.5462C266.17 14.344 265.917 14.2429 265.605 14.2429C265.271 14.2429 265.007 14.3523 264.815 14.571C264.626 14.7865 264.531 15.0765 264.531 15.4411V20H262.195V15.3913C262.195 15.0367 262.099 14.7566 261.906 14.5511C261.714 14.3456 261.461 14.2429 261.146 14.2429C260.934 14.2429 260.746 14.2943 260.584 14.397C260.422 14.4964 260.294 14.639 260.201 14.8246C260.112 15.0102 260.067 15.2289 260.067 15.4808V20H257.636Z" fill="#13121C"/>
<defs>
<linearGradient id="paint0_linear_305_2299" x1="97.9554" y1="7.87498" x2="105.31" y2="20.6019" gradientUnits="userSpaceOnUse">
<stop stop-color="#5A62C3"/>
<stop offset="0.5" stop-color="#4D55BD"/>
<stop offset="1" stop-color="#3940AB"/>
</linearGradient>
<clipPath id="clip0_305_2299">
<rect width="24.3072" height="20" fill="white" transform="translate(0 5)"/>
</clipPath>
<clipPath id="clip1_305_2299">
<rect width="22" height="20.4828" fill="white" transform="translate(96 4)"/>
</clipPath>
</defs>
</svg>
